<svg xmlns="http://www.w3.org/2000/svg" viewBox="0 0 42 63" width="42" height="63">
	<style>
		tspan { white-space:pre }
	</style>
	<path id=" " fill="#525151" d="M39.82 28.18C40.73 29.09 41.19 30.2 41.19 31.5C41.19 32.8 40.73 33.91 39.82 34.82L13.16 61.38C12.25 62.29 11.14 62.75 9.83 62.75C8.52 62.75 7.41 62.29 6.5 61.38L2.19 56.89C1.27 55.98 0.81 54.87 0.81 53.57C0.81 52.27 1.27 51.16 2.19 50.25L21 31.5L2.19 12.55C1.27 11.77 0.81 10.73 0.81 9.43C0.81 8.13 1.27 7.02 2.19 6.11L6.5 1.62C7.41 0.71 8.52 0.25 9.83 0.25C11.14 0.25 12.25 0.71 13.16 1.62Z" />
</svg>