<svg xmlns="http://www.w3.org/2000/svg" viewBox="0 0 1034 671" width="115" height="75">
	<defs>
		<clipPath clipPathUnits="userSpaceOnUse" id="cp1">
			<path d="M0 0L1034 0L1034 671L0 671Z" />
		</clipPath>
	</defs>
	<style>
		tspan {
			white-space: pre
		}

		.shp0 {
			stroke-width: 10
		}
	</style>
	<g id="Page 1" clip-path="url(#cp1)">
		<path id="Path 1" fill-rule="evenodd" fill="#686868" class="shp0"
			d="M1003.75 378.73C1056.19 470.7 1024.15 587.77 932.18 640.22C840.21 692.67 723.14 660.62 670.69 568.65C618.25 476.68 650.29 359.61 742.26 307.16L692.29 190.58L535.84 483.93L535.47 484.57C533.06 488.76 529.3 492.01 524.81 493.79C523.63 494.26 522.41 494.62 521.16 494.87C519.75 495.16 518.32 495.3 516.89 495.3L387.63 495.3C384.34 524.87 374.22 553.27 358.08 578.25C300.55 667.26 181.76 692.77 92.75 635.24C3.74 577.71 -21.77 458.92 35.76 369.92C93.29 280.91 212.08 255.39 301.08 312.92L365.68 233.99L312.09 132.66L260.89 132.66C249.11 132.66 239.56 123.11 239.56 111.32C239.56 99.54 249.11 89.99 260.89 89.99L410.22 89.99C422.01 89.99 431.56 99.54 431.56 111.32C431.56 123.11 422.01 132.66 410.22 132.66L360.26 132.66L402.93 213.13L669.28 137.03L625.29 34.4C624.15 31.74 623.56 28.88 623.56 25.99C623.56 14.21 633.11 4.66 644.89 4.66L751.56 4.66C763.34 4.66 772.89 14.21 772.89 25.99C772.89 37.77 763.34 47.32 751.56 47.32L677.26 47.32L781.43 290.25C799.41 284.78 818.1 282 836.89 281.99C905.86 281.87 969.58 318.81 1003.75 378.73ZM645.02 188.32L423.26 251.68L516.89 428.53L645.02 188.32ZM481.54 452.66L387.44 274.89L334.11 339.95C364.04 370.49 382.88 410.16 387.63 452.66L481.54 452.66ZM344.52 495.32L196.89 495.32C191.97 495.32 187.2 493.62 183.39 490.51C174.27 483.05 172.92 469.61 180.38 460.49L273.84 346.25C250.4 332.05 223.51 324.59 196.11 324.66C113.63 324.87 46.95 391.91 47.17 474.38C47.38 556.86 114.42 623.54 196.89 623.32C271.04 623.19 333.88 568.71 344.52 495.32ZM241.91 452.66L344.52 452.66C340.24 423.01 327.11 395.35 306.84 373.3L241.91 452.66ZM877.43 618C956.96 596.16 1003.72 513.98 981.89 434.45C960.05 354.92 877.87 308.15 798.34 329.99L856.5 465.59C860.9 476.26 856 488.5 845.46 493.2C834.69 497.99 822.08 493.16 817.29 482.4L759.15 346.74C714.67 373.84 687.54 422.17 687.59 474.26C687.65 556.65 754.5 623.39 836.89 623.32C850.58 623.41 864.22 621.62 877.43 618Z" />
	</g>
</svg>