<svg xmlns="http://www.w3.org/2000/svg" viewBox="0 0 1034 671" width="113" height="73"><defs><clipPath clipPathUnits="userSpaceOnUse" id="cp1"><path d="M0 0h1034v671H0z"/></clipPath></defs><style></style><g id="Page 1" clip-path="url(#cp1)"><path id="Path 1" fill-rule="evenodd" d="M1003.75 378.73c52.44 91.97 20.4 209.04-71.57 261.49-91.97 52.45-209.04 20.4-261.49-71.57-52.44-91.97-20.4-209.04 71.57-261.49l-49.97-116.58-156.45 293.35-.37.64a21.396 21.396 0 01-10.66 9.22c-1.18.47-2.4.83-3.65 1.08-1.41.29-2.84.43-4.27.43H387.63a191.976 191.976 0 01-29.55 82.95c-57.53 89.01-176.32 114.52-265.33 56.99C3.74 577.71-21.77 458.92 35.76 369.92c57.53-89.01 176.32-114.53 265.32-57l64.6-78.93-53.59-101.33h-51.2c-11.78 0-21.33-9.55-21.33-21.34 0-11.78 9.55-21.33 21.33-21.33h149.33c11.79 0 21.34 9.55 21.34 21.33 0 11.79-9.55 21.34-21.34 21.34h-49.96l42.67 80.47 266.35-76.1L625.29 34.4a21.348 21.348 0 01-1.73-8.41c0-11.78 9.55-21.33 21.33-21.33h106.67c11.78 0 21.33 9.55 21.33 21.33 0 11.78-9.55 21.33-21.33 21.33h-74.3l104.17 242.93a190.9 190.9 0 0155.46-8.26c68.97-.12 132.69 36.82 166.86 96.74zM645.02 188.32l-221.76 63.36 93.63 176.85 128.13-240.21zM481.54 452.66l-94.1-177.77-53.33 65.06a191.383 191.383 0 0153.52 112.71h93.91zm-137.02 42.66H196.89c-4.92 0-9.69-1.7-13.5-4.81-9.12-7.46-10.47-20.9-3.01-30.02l93.46-114.24a149.263 149.263 0 00-77.73-21.59c-82.48.21-149.16 67.25-148.94 149.72.21 82.48 67.25 149.16 149.72 148.94 74.15-.13 136.99-54.61 147.63-128zm-102.61-42.66h102.61a148.63 148.63 0 00-37.68-79.36l-64.93 79.36zM877.43 618c79.53-21.84 126.29-104.02 104.46-183.55-21.84-79.53-104.02-126.3-183.55-104.46l58.16 135.6c4.4 10.67-.5 22.91-11.04 27.61-10.77 4.79-23.38-.04-28.17-10.8l-58.14-135.66c-44.48 27.1-71.61 75.43-71.56 127.52.06 82.39 66.91 149.13 149.3 149.06 13.69.09 27.33-1.7 40.54-5.32z" fill="#686868" stroke="#f6f6f8" stroke-width="10"/></g></svg>