<svg xmlns="http://www.w3.org/2000/svg" viewBox="0 0 1024 855" width="102" height="85"><defs><clipPath clipPathUnits="userSpaceOnUse" id="cp1"><path d="M0 0h1024v855H0z"/></clipPath></defs><style/><g id="Page 1" clip-path="url(#cp1)"><path id="Path 1" fill-rule="evenodd" fill="#686868" class="shp0" d="M1024 189v93.19c0 7.41-5.32 13.74-12.62 15.02l-136.39 23.78c11.44 19.34 18.03 41.86 18.03 65.91v48.87h68.64c8.42 0 15.24 6.82 15.24 15.23v206.46c0 .17-.02.35-.03.53.01.18.03.35.03.53v181.24c0 8.42-6.82 15.24-15.24 15.24H788.31c-8.41 0-15.24-6.82-15.24-15.24V672.69H253.68v167.07c0 8.42-6.82 15.24-15.23 15.24H65.1c-8.42 0-15.24-6.82-15.24-15.24V658.52c0-.18.02-.35.03-.53-.01-.18-.03-.36-.03-.53V451c0-8.41 6.82-15.23 15.24-15.23h68.64V386.9c0-23.87 6.5-46.23 17.78-65.47l-138.9-24.22A15.245 15.245 0 010 282.19V189c0-8.42 6.82-15.24 15.24-15.24h160.3c6.22 0 11.56 3.73 13.92 9.07l20.12-169.65c.91-7.67 7.41-13.45 15.13-13.45h577.34c7.72 0 14.22 5.78 15.13 13.45l19.68 165.95c2.79-3.28 6.95-5.37 11.6-5.37h160.3c8.42 0 15.24 6.82 15.24 15.24zM893.02 466.24v175.98h53.4V466.24h-53.4zm53.4 207.52H803.55v150.77h142.87V673.76zm-723.21 0H80.34v150.77h142.87V673.76zM80.34 642.22h53.4V466.24h-53.4v175.98zM30.48 269.38l129.82 22.65v-87.8H30.48v65.15zm179.5-.71c14.91-6.8 31.32-10.85 48.59-11.52l15.54-169.1c.72-7.84 7.3-13.84 15.17-13.84h431.48c7.88 0 14.46 6 15.17 13.84l15.53 168.98h11.69c19.12 0 37.27 4.18 53.64 11.64L788.51 30.21H238.25l-28.27 238.46zm510.88-11.64l-14-152.34H303.18l-14 152.34h431.68zM862.55 386.9c0-54.81-44.59-99.4-99.4-99.4H263.61c-54.81 0-99.4 44.59-99.4 99.4v157.46h227.2V342.4c0-8.41 6.82-15.23 15.23-15.23 8.42 0 15.24 6.82 15.24 15.23v201.96h37.14V342.4c0-8.41 6.82-15.23 15.23-15.23 8.42 0 15.24 6.82 15.24 15.23v201.96h44.65V342.4c0-8.41 6.82-15.23 15.24-15.23 8.41 0 15.23 6.82 15.23 15.23v201.96h44.65V342.4c0-8.41 6.82-15.23 15.24-15.23s15.24 6.82 15.24 15.23v201.96h222.81V386.9zM164.21 642.22h698.34v-67.38H164.21v67.38zm829.32-437.99H863.7v87.8l129.83-22.65v-65.15z"/><path id="Path 2" fill-rule="evenodd" fill="#686868" class="shp0" d="M354.09 392.12c0 41.23-33.54 74.76-74.76 74.76-41.22 0-74.76-33.53-74.76-74.76 0-41.22 33.54-74.76 74.76-74.76 41.22 0 74.76 33.54 74.76 74.76zm-30.47 0c0-24.42-19.87-44.29-44.29-44.29-24.42 0-44.29 19.87-44.29 44.29 0 24.42 19.87 44.29 44.29 44.29 24.42 0 44.29-19.87 44.29-44.29zm494.77 0c0 41.23-33.54 74.76-74.76 74.76-41.23 0-74.77-33.53-74.77-74.76 0-41.22 33.54-74.76 74.77-74.76 41.22 0 74.76 33.54 74.76 74.76zm-30.48 0c0-24.42-19.86-44.29-44.28-44.29-24.43 0-44.29 19.87-44.29 44.29 0 24.42 19.86 44.29 44.29 44.29 24.42 0 44.28-19.87 44.28-44.29z"/></g></svg>