<svg xmlns="http://www.w3.org/2000/svg" viewBox="0 0 768 1024" width="68" height="91"><defs><clipPath clipPathUnits="userSpaceOnUse" id="cp1"><path d="M0 0h768v1024H0z"/></clipPath></defs><style></style><g id="Page 1" clip-path="url(#cp1)"><path id="Path 1" fill-rule="evenodd" fill="#686868" class="shp0" d="M766.73 380.65l-27.96 74.29c-1.45 3.84-4.35 6.82-7.93 8.47v545.33c0 8.43-6.83 15.26-15.25 15.26h-42.33c-8.42 0-15.25-6.83-15.25-15.26V466.5l-181.61 7.83c-.22.01-.44.01-.67.01a15.2 15.2 0 01-5.28-.94c-2.42-.71-4.65-2.03-6.47-3.84l-33.42-33.43-18.57 106.01 86.45 152.61c3.69 6.4 5.98 13.52 6.76 21.06.53 3.08.78 6.01.78 8.93v208.67l39.8 4.62c19.81 2.31 34.8 19.08 34.88 39.02l.06 16.99c.01 4.06-1.59 7.95-4.45 10.83a15.26 15.26 0 01-10.8 4.49H413.98c-8.43 0-15.26-6.83-15.26-15.26V736.35l-79.51-140.37-39.08 141.22c-1.91 7.13-5.32 13.78-10.11 19.67-1.8 2.54-3.68 4.79-5.76 6.86-.05.06-.11.12-.16.17L123.94 899.81l24.16 30.5c12.38 15.64 11.12 38.1-2.93 52.25l-11.97 12.06c-2.86 2.88-6.74 4.5-10.8 4.51h-.03c-4.04 0-7.92-1.61-10.78-4.47L4.47 887.54c-5.96-5.95-5.96-15.61 0-21.57l39.61-39.61.07-.07c.06-.05.11-.11.16-.16l136.04-130.29 48.74-166.82 11.71-66.85c-1.42-.07-2.85-.2-4.29-.45l-78.54-13.76c-18.9-3.31-31.59-21.39-28.28-40.3l9.93-56.65-30.96-7.47c-7.86-1.9-12.87-9.61-11.42-17.57l29.85-163.95a15.3 15.3 0 016.74-10.09c3.54-2.28 7.87-3 11.97-1.98l27.84 6.96 4.58-26.19c3.32-18.91 21.39-31.6 40.3-28.28l78.54 13.77c9.13 1.6 17.11 6.68 22.46 14.3 5.35 7.62 7.42 16.85 5.82 25.99l-9.88 56.35c1.42.07 2.85.2 4.29.45l18.96 3.33 5.62-30.88a48.483 48.483 0 01-4.62-4.35c-8.85-9.51-13.47-21.86-13-34.78l3.59-99.83c.96-26.75 23.46-47.7 50.25-46.76l57 2.05c12.92.46 24.91 5.96 33.76 15.47 8.85 9.51 13.47 21.86 13.01 34.78l-3.6 99.83c-.46 12.92-5.96 24.91-15.46 33.76-8.28 7.7-18.71 12.15-29.79 12.88l-6.87 48.1c3.38 3.35 6.5 7.02 9.3 11 11.99 17.1 16.8 37.68 13.66 58.14l57.57 55.18 146.35-6.31 2.53-.12V165.71c0-8.43 6.83-15.26 15.25-15.26h42.32c8.43 0 15.26 6.83 15.26 15.26V361.1l20.84-1.06c5.12-.27 10.05 2.09 13.09 6.24 3.03 4.16 3.77 9.56 1.96 14.37zM643.31 436.6l-1.75-40.55-137.62 5.94c-4.15.17-8.21-1.35-11.21-4.23L377.06 286.9c-6.09-5.83-6.29-15.49-.46-21.57s15.49-6.29 21.57-.46l19.31 18.51a50.5 50.5 0 00-4.56-7.95c-7.65-10.9-19.02-18.16-32.02-20.44l-31.04-5.44c-.53-.04-1.06-.1-1.6-.19-.48-.09-.95-.2-1.41-.33l-32.37-5.68c-2.29-.39-4.57 1.2-4.97 3.5l-47.89 273.24 48.18 8.44c4.79.84 8.89 3.91 11.05 8.27l.26.53c.13.27.25.54.4.8l6.09 10.75c.01.01.01.02.02.04l99.63 175.88c1.3 2.3 1.98 4.89 1.98 7.53v192.16l46.25 5.37V724.74c0-1.28-.14-2.63-.41-4.12-.08-.45-.14-.9-.18-1.36-.31-3.37-1.3-6.52-2.94-9.36l-89.21-157.49a15.26 15.26 0 01-1.75-10.15l23.22-132.48-86.17-86.17c-5.95-5.95-5.95-15.61 0-21.57 5.96-5.96 15.62-5.96 21.58 0l141.54 141.55 162.15-6.99zM542.26 968.34L429.23 955.2v23.64h120.92v-1.68a8.923 8.923 0 00-7.89-8.82zm-244.31-409.9l-.63-1.12-42.54-7.45-46.29 158.45c-.75 2.56-2.16 4.89-4.09 6.74L75.44 838.55l29.47 37.22 137.85-133.68c.88-.89 1.72-1.91 2.56-3.12.25-.38.53-.75.83-1.1 2.17-2.6 3.69-5.53 4.54-8.7l47.26-170.73zM124.18 949.25l-32.72-41.32-.04-.04-37.88-47.85-16.71 16.71 85.5 85.51 1.19-1.19c3.17-3.2 3.46-8.28.66-11.82zm122.57-521.07l12.97-74 35.57-202.95c.4-2.29-1.2-4.57-3.49-4.97l-78.54-13.77c-2.3-.4-4.58 1.2-4.98 3.49l-48.53 276.95c-.4 2.29 1.2 4.57 3.49 4.97l78.54 13.77c2.3.4 4.57-1.2 4.97-3.49zM144.9 320.9l23.46-133.86-14.17-3.54-24.36 133.76 15.07 3.64zm223.86-99.01l17.4 3.05c4.9.86 9.64 2.17 14.2 3.87l4.41-30.81-31.3-1.13c-.05 0-.1-.01-.15-.01l-4.56 25.03zm-7.97-174l-1.27 35.34c23.36-5.77 63.93-19.07 88.52-45.81-3.18-2.98-7.24-4.69-11.58-4.85l-57-2.05c-.22-.01-.44-.01-.66-.01-9.64 0-17.66 7.66-18.01 17.38zm89.44 103.17l2.78-77.09c-32.63 25.11-74.05 36.49-94.63 40.88l-1.18 32.87c-.17 4.78 1.55 9.36 4.85 12.9 1.23 1.33 2.63 2.45 4.15 3.33 1 .35 1.95.8 2.84 1.33 1.76.65 3.61 1.03 5.53 1.1l57 2.05c4.74.16 9.36-1.55 12.9-4.85 3.55-3.3 5.59-7.74 5.76-12.52zm279.74 240.63l-10.63.54c-1.2.31-2.45.48-3.75.48h-5.82l-37.74 1.91 1.77 40.94 40.04-.99 16.13-42.88zm-41.45-29.49h11.81V180.96h-11.81V362.2zm11.81 104.23h-11.81v527.06h11.81V466.43z"/></g></svg>