<svg xmlns="http://www.w3.org/2000/svg" viewBox="0 0 793 552" width="109" height="76"><defs><clipPath clipPathUnits="userSpaceOnUse" id="cp1"><path d="M0 0h793v552H0z"/></clipPath></defs><style>.shp0{stroke-width:8}</style><g id="Page 1" clip-path="url(#cp1)"><path id="Path 1" class="shp0" fill="#686868" d="M396.11 207.43c46.56-20.65 79.49-57.8 97.87-110.44L462.1 85.84c-15.18 43.45-41.95 73.94-79.6 90.67-95.72 42.54-232.28-14.02-233.64-14.58l-13.14 31.1c4.38 1.85 79.8 33.17 162.34 33.17 32.9 0 66.93-4.96 98.05-18.77z"/><path id="Path 2" fill-rule="evenodd" fill="#686868" class="shp0" d="M771.7 380.2c-17.14 28.97-44.53 49.5-77.11 57.84a126.033 126.033 0 01-31.35 3.98c-57.48 0-107.6-38.95-121.91-94.69-11.41-44.56 2.6-89.74 32.9-120.2l-24.05-33.65c-39.11 34.97-74.11 90.46-86.49 178.61-.94 6.77-5.9 12.32-12.52 14.01l-101.03 25.92c-1.39.36-2.8.52-4.18.52-6.27 0-12.18-3.52-15.11-9.32-2.87-5.69-49.65-96.07-140.41-128.54l-2.19 24.53c45.28 10.25 82.17 45.04 94.1 91.56 17.23 67.26-23.46 136-90.71 153.25a125.822 125.822 0 01-31.36 3.98c-57.49 0-107.62-38.94-121.91-94.7-8.35-32.58-3.52-66.46 13.62-95.4 17.13-28.96 44.52-49.49 77.1-57.84 8.37-2.15 16.93-3.43 25.51-3.82l2.7-30.25c-39.28-6.71-85.23-2.15-137.86 22.11L5.31 257.42c58.58-26.97 110.09-32.31 154.42-25.15l.01-.08c2.65.38 265.29 40.65 360.79-56.9l.25.24c14.54-13.85 29.73-25.15 44.82-34.38L447.76 39.13l-42.31 10.86-8.4-32.72 50.88-13.05c5.39-1.3 11.07-.04 15.25 3.59l134.54 116.48c51.64-23.01 95.06-24.09 96.05-24.09l.4 33.77c-4.31.07-60.71 1.74-117.21 38.91l24.11 33.74c9.51-5.42 19.87-9.7 30.98-12.55 10.28-2.64 20.83-3.98 31.36-3.98 57.49 0 107.61 38.95 121.91 94.69 8.35 32.58 3.5 66.47-13.62 95.42zM467.3 246.93c-57.35 21.75-125.92 27.79-184.27 27.79-7.71 0-15.21-.1-22.51-.29 49.31 34.72 80.71 80.3 93.69 101.66l77.75-19.94c7.17-43.33 19.63-79.31 35.34-109.22zm-282.09 86.34l-8.04 90.28-33.64-3.01 8.04-90.24c-4.74.47-9.45 1.29-14.09 2.48-23.85 6.1-43.88 21.13-56.43 42.32-12.53 21.18-16.07 45.97-9.96 69.82 10.46 40.81 47.13 69.31 89.19 69.31 7.69 0 15.42-.99 22.96-2.92 49.22-12.62 79-62.94 66.39-112.16-8.34-32.5-33.33-57.19-64.42-65.88zm567.38-40.1c-10.46-40.79-47.13-69.29-89.18-69.29-7.7 0-15.43.99-22.97 2.92a91.746 91.746 0 00-19.59 7.51l51.07 71.49-27.48 19.62-50.21-70.28c-19.45 22.13-28.02 53.18-20.17 83.82 10.45 40.78 47.12 69.28 89.18 69.28 7.7 0 15.43-.99 22.97-2.92 23.84-6.1 43.87-21.15 56.42-42.32 12.54-21.18 16.07-45.98 9.96-69.83z"/></g></svg>