<svg xmlns="http://www.w3.org/2000/svg" viewBox="0 0 1007 1024" width="86" height="87"><defs><clipPath clipPathUnits="userSpaceOnUse" id="cp1"><path d="M0 0h1007v1024H0z"/></clipPath></defs><style></style><g id="Page 1" clip-path="url(#cp1)"><path id="Path 1" fill-rule="evenodd" fill="#686868" class="shp0" d="M1003.84 998.52c4.71 6.4 3.94 15.59-1.81 21.08-6.9 6.6-18.35 5.64-24.01-2.05L749.63 707.59l-21.02 21.03c-6.26 6.26-16.41 6.26-22.68 0l-57.07-57.08-57.08 57.08c-6.26 6.26-16.41 6.26-22.67 0l-57.08-57.08-57.07 57.08c-6.26 6.26-16.41 6.26-22.68 0l-57.07-57.08-57.08 57.08c-6.26 6.26-16.41 6.26-22.67 0l-21.02-21.03-228.39 309.96c-5.32 7.22-15.89 8.59-22.9 3.03-6.67-5.28-7.96-15.22-2.92-22.05l239.45-324.97L496 352.84V16.03C496 7.18 503.18 0 512.03 0c8.86 0 16.04 7.18 16.04 16.03v18.18h35.28c8.85 0 16.03 7.17 16.03 16.03 0 8.86-7.18 16.04-16.03 16.04h-35.28v138.96h207.38V66.28H631.76c-8.86 0-16.03-7.18-16.03-16.04s7.17-16.03 16.03-16.03h119.72c8.86 0 16.04 7.17 16.04 16.03v69.49h137.9c13.97 0 21.23 17.47 11.33 27.37l-74.18 74.18 74.19 74.17c9.9 9.9 2.64 27.38-11.34 27.38H665.97c-8.85 0-16.03-7.18-16.03-16.04v-69.48H528.08v115.53l85.08 115.47c5.19 7.03 3.64 17.24-3.39 22.42-7.04 5.18-17.24 3.64-22.42-3.39l-75.31-102.2-218.36 296.34 13.12 13.12 57.07-57.07c6.27-6.26 16.42-6.26 22.68 0l57.08 57.07 57.07-57.07c6.26-6.26 16.41-6.26 22.68 0l57.07 57.07 57.08-57.07c6.26-6.26 16.41-6.26 22.67 0l57.08 57.07 13.12-13.12-105.25-142.83c-5.25-7.13-3.73-17.16 3.4-22.42 7.13-5.24 17.17-3.73 22.42 3.4l352.87 478.89zM682 237.31v53.45h184.7l-58.14-58.15c-6.26-6.26-6.26-16.41 0-22.67l58.15-58.15h-99.19v69.49c0 8.85-7.18 16.03-16.04 16.03H682z"/><path id="Path 2" fill-rule="evenodd" fill="#686868" class="shp0" d="M136.83 135.76c0-37.13 30.21-67.35 67.34-67.35.36 0 .72.01 1.08.01 0-.36-.01-.72-.01-1.07C205.24 30.21 235.45 0 272.59 0c37.13 0 67.34 30.21 67.34 67.35 0 .35 0 .71-.01 1.07 37.55-.52 68.43 29.85 68.43 67.34 0 37.13-30.21 67.35-67.35 67.35H204.17c-37.13 0-67.34-30.22-67.34-67.35zm32.07 0c0 19.45 15.82 35.28 35.27 35.28H341c19.45 0 35.28-15.83 35.28-35.28 0-19.45-15.83-35.28-35.28-35.28-5.32 0-10.42 1.16-15.18 3.43-6.06 2.9-13.5 1.62-18.25-3.13-4.76-4.75-6.03-12.19-3.13-18.25 2.27-4.76 3.42-9.87 3.42-15.18 0-19.45-15.82-35.28-35.27-35.28-19.45 0-35.28 15.83-35.28 35.28 0 5.32 1.15 10.42 3.43 15.18 2.9 6.06 1.62 13.5-3.13 18.25s-12.19 6.03-18.25 3.13a35.018 35.018 0 00-15.19-3.43c-19.45 0-35.27 15.83-35.27 35.28zm769.66 307.86c0 .36-.01.72-.01 1.08.36-.01.72-.01 1.07-.01 37.14 0 67.35 30.21 67.35 67.35 0 37.13-30.21 67.34-67.35 67.34H802.8c-37.14 0-67.35-30.21-67.35-67.34 0-37.14 30.21-67.35 67.35-67.35.36 0 .71 0 1.07.01v-1.08c0-37.13 30.21-67.34 67.34-67.34s67.35 30.21 67.35 67.34zm-14.12 36.57c-6.06 2.9-13.5 1.62-18.25-3.13-4.76-4.75-6.03-12.19-3.13-18.26 2.27-4.75 3.43-9.86 3.43-15.18 0-19.45-15.83-35.27-35.28-35.27-19.45 0-35.28 15.82-35.28 35.27 0 5.32 1.16 10.43 3.43 15.18 2.9 6.07 1.63 13.51-3.13 18.26-4.75 4.75-12.18 6.03-18.25 3.13-4.76-2.28-9.86-3.43-15.18-3.43-19.45 0-35.28 15.83-35.28 35.28 0 19.45 15.83 35.27 35.28 35.27h136.82c19.46 0 35.28-15.82 35.28-35.27 0-19.45-15.82-35.28-35.28-35.28-5.31 0-10.42 1.15-15.18 3.43z"/><path id="Path 3" fill-rule="evenodd" fill="#686868" class="shp0" d="M0 580.45c0-37.49 30.88-67.86 68.42-67.34v-1.07c0-37.14 30.21-67.35 67.34-67.35s67.34 30.21 67.34 67.35v1.07h1.07c37.14 0 67.35 30.21 67.35 67.34s-30.21 67.35-67.35 67.35H67.35C30.21 647.8 0 617.58 0 580.45zm32.07 0c0 19.45 15.82 35.28 35.28 35.28h136.82c19.46 0 35.28-15.83 35.28-35.28 0-19.45-15.82-35.28-35.28-35.28-5.32 0-10.42 1.16-15.18 3.43-6.02 2.88-13.53 1.59-18.25-3.13-4.72-4.72-6.01-12.23-3.13-18.25 2.27-4.76 3.43-9.86 3.43-15.18 0-19.45-15.83-35.28-35.28-35.28-19.45 0-35.28 15.83-35.28 35.28 0 5.32 1.16 10.42 3.43 15.18 2.9 6.07 1.62 13.5-3.13 18.25s-12.19 6.03-18.25 3.13a34.975 34.975 0 00-15.18-3.43c-19.46 0-35.28 15.83-35.28 35.28z"/></g></svg>