<svg xmlns="http://www.w3.org/2000/svg" viewBox="0 0 660 772" width="78" height="91"><defs><clipPath clipPathUnits="userSpaceOnUse" id="cp1"><path d="M0 0h660v772H0z"/></clipPath></defs><style>.shp0{stroke:#f9fafb;stroke-width:4}</style><g id="Page 1" clip-path="url(#cp1)"><path id="Path 1" fill-rule="evenodd" fill="#686868" class="shp0" d="M423.35 245.27H224.54V144.09h198.81v101.18zm-32-69.18H256.54v37.17h134.81v-37.17z"/><path id="Path 2" fill-rule="evenodd" fill="#686868" class="shp0" d="M645.17 664.59c-15.12 16.12-39.63 18.37-72.84 18.68l1.36 26.68c.81 15.92-4.71 30.97-15.54 42.37-10.84 11.41-25.59 17.68-41.53 17.68H143.48c-15.95 0-30.7-6.27-41.53-17.68-10.84-11.4-16.36-26.45-15.55-42.37l1.37-26.68c-33.21-.31-57.71-2.56-72.84-18.68C5.11 654.14.96 639.38 2.22 619.48c7.03-110.37 18.26-176.06 36.41-212.99 17.22-35.04 41.08-45 65.7-47.39l8.17-160c.92-18 9.93-34.65 24.39-45.69l-2.15-23.46c-1.48-16 3.5-31.17 14.03-42.7 10.51-11.53 25.16-17.88 41.23-17.88h34.54v-8.06c0-32.71 26.6-59.31 59.3-59.31h80.21c32.69 0 59.3 26.6 59.3 59.31v8.06h46.75c16.07 0 30.71 6.35 41.24 17.88 10.51 11.54 15.5 26.7 14.02 42.7l-2.16 23.46c14.29 10.91 23.47 27.58 24.39 45.7l8.18 159.98c24.62 2.39 48.48 12.36 65.7 47.4 18.15 36.93 29.38 102.62 36.41 212.98 1.26 19.9-2.89 34.67-12.71 45.12zm-103.44 46.99l-24.95-488.33-7.83 85.03c-2.9 31.6-30.94 57.34-62.64 57.63v121.04c10.62 7.28 17.68 20.01 17.68 34.5v61.03c0 14.48-7.06 27.22-17.68 34.51V738h70.31c7.08 0 13.6-2.74 18.33-7.73 4.73-4.97 7.15-11.61 6.78-18.69zM143.48 738h58.09V616.99c-10.61-7.29-17.67-20.03-17.67-34.51v-61.03c0-14.49 7.06-27.23 17.67-34.5V364.53c-26.39-5.75-47.9-28.79-50.44-56.25l-7.82-85.08-24.95 488.38c-.36 7.08 2.05 13.72 6.78 18.69 4.74 4.99 11.24 7.73 18.34 7.73zM89.4 651.28l13.29-260.04c-30.59 4.53-56.06 34.28-68.53 230.27-.67 10.44.72 17.58 4.11 21.19 6.75 7.19 26.61 8.39 51.13 8.58zM400.38 738h13.93V623.41h-13.93V738zm0-257.48h13.93V365.93h-13.93v114.59zm25.46 110.89c2.9 0 6.15-3.67 6.15-8.93v-61.03c0-5.26-3.25-8.93-6.15-8.93h-36.98c-2.91 0-6.15 3.67-6.15 8.93v61.03c0 5.26 3.24 8.93 6.15 8.93h36.98zM279.51 738h88.87V616.98c-10.61-7.28-17.67-20.02-17.67-34.5v-61.03c0-14.49 7.06-27.22 17.67-34.5V365.93h-88.87v121.02c10.61 7.28 17.66 20.01 17.66 34.5v61.03c0 14.48-7.05 27.22-17.66 34.5V738zm-45.94 0h13.94V623.41h-13.94V738zm13.94-372.07h-13.94v114.59h13.94V365.93zm11.52 225.48c2.91 0 6.14-3.67 6.14-8.93v-61.03c0-5.26-3.24-8.93-6.14-8.93h-36.98c-2.91 0-6.15 3.67-6.15 8.93v61.03c0 5.26 3.24 8.93 6.15 8.93h36.98zM166.6 127.02L183 305.34c1.43 15.5 15.78 28.59 31.34 28.59h231.42c15.56 0 29.91-13.09 31.34-28.59l16.4-178.32c.64-6.94-1.42-13.4-5.8-18.21-4.39-4.8-10.64-7.45-17.6-7.45H190c-6.97 0-13.21 2.65-17.59 7.45-4.38 4.81-6.45 11.27-5.81 18.21zm89.94-57.65h134.81v-8.06c0-15.06-12.25-27.31-27.3-27.31h-80.2c-15.06 0-27.31 12.25-27.31 27.31v8.06zm369.4 552.14C613.46 425.5 588 395.76 557.41 391.24l13.28 260.04c24.52-.19 44.4-1.39 51.14-8.58 3.39-3.61 4.77-10.75 4.11-21.19z"/></g></svg>