<svg xmlns="http://www.w3.org/2000/svg"><symbol id="arrow-l" viewBox="0 0 40 63"><path id="" fill="#525151" d="M39.82 28.18c.91.91 1.37 2.02 1.37 3.32 0 1.3-.46 2.41-1.37 3.32L13.16 61.38c-.91.91-2.02 1.37-3.33 1.37s-2.42-.46-3.33-1.37l-4.31-4.49c-.92-.91-1.38-2.02-1.38-3.32 0-1.3.46-2.41 1.38-3.32L21 31.5 2.19 12.55C1.27 11.77.81 10.73.81 9.43s.46-2.41 1.38-3.32L6.5 1.62C7.41.71 8.52.25 9.83.25s2.42.46 3.33 1.37z"/></symbol><symbol id="bicycle" viewBox="0 0 1034 671"><defs><clipPath clipPathUnits="userSpaceOnUse" id="cp1"><path d="M0 0h1034v671H0z"/></clipPath></defs><style>.shp0{fill:#686868;stroke:#f6f6f8;stroke-width:10}</style><g id="Page 1" clip-path="url(#cp1)" fill="#686868"><path id="Path 1" fill-rule="evenodd" class="shp0" d="M1003.75 378.73c52.44 91.97 20.4 209.04-71.57 261.49-91.97 52.45-209.04 20.4-261.49-71.57-52.44-91.97-20.4-209.04 71.57-261.49l-49.97-116.58-156.45 293.35-.37.64a21.396 21.396 0 01-10.66 9.22c-1.18.47-2.4.83-3.65 1.08-1.41.29-2.84.43-4.27.43H387.63a191.976 191.976 0 01-29.55 82.95c-57.53 89.01-176.32 114.52-265.33 56.99C3.74 577.71-21.77 458.92 35.76 369.92c57.53-89.01 176.32-114.53 265.32-57l64.6-78.93-53.59-101.33h-51.2c-11.78 0-21.33-9.55-21.33-21.34 0-11.78 9.55-21.33 21.33-21.33h149.33c11.79 0 21.34 9.55 21.34 21.33 0 11.79-9.55 21.34-21.34 21.34h-49.96l42.67 80.47 266.35-76.1L625.29 34.4a21.348 21.348 0 01-1.73-8.41c0-11.78 9.55-21.33 21.33-21.33h106.67c11.78 0 21.33 9.55 21.33 21.33 0 11.78-9.55 21.33-21.33 21.33h-74.3l104.17 242.93a190.9 190.9 0 0155.46-8.26c68.97-.12 132.69 36.82 166.86 96.74zM645.02 188.32l-221.76 63.36 93.63 176.85 128.13-240.21zM481.54 452.66l-94.1-177.77-53.33 65.06a191.383 191.383 0 0153.52 112.71h93.91zm-137.02 42.66H196.89c-4.92 0-9.69-1.7-13.5-4.81-9.12-7.46-10.47-20.9-3.01-30.02l93.46-114.24a149.263 149.263 0 00-77.73-21.59c-82.48.21-149.16 67.25-148.94 149.72.21 82.48 67.25 149.16 149.72 148.94 74.15-.13 136.99-54.61 147.63-128zm-102.61-42.66h102.61a148.63 148.63 0 00-37.68-79.36l-64.93 79.36zM877.43 618c79.53-21.84 126.29-104.02 104.46-183.55-21.84-79.53-104.02-126.3-183.55-104.46l58.16 135.6c4.4 10.67-.5 22.91-11.04 27.61-10.77 4.79-23.38-.04-28.17-10.8l-58.14-135.66c-44.48 27.1-71.61 75.43-71.56 127.52.06 82.39 66.91 149.13 149.3 149.06 13.69.09 27.33-1.7 40.54-5.32z"/></g></symbol><symbol id="car" viewBox="0 0 1024 855"><defs><clipPath clipPathUnits="userSpaceOnUse" id="cp1"><path d="M0 0h1024v855H0z"/></clipPath></defs><style/><g id="Page 1" clip-path="url(#cp1)"><path id="Path 1" fill-rule="evenodd" fill="#686868" class="shp0" d="M1024 189v93.19c0 7.41-5.32 13.74-12.62 15.02l-136.39 23.78c11.44 19.34 18.03 41.86 18.03 65.91v48.87h68.64c8.42 0 15.24 6.82 15.24 15.23v206.46c0 .17-.02.35-.03.53.01.18.03.35.03.53v181.24c0 8.42-6.82 15.24-15.24 15.24H788.31c-8.41 0-15.24-6.82-15.24-15.24V672.69H253.68v167.07c0 8.42-6.82 15.24-15.23 15.24H65.1c-8.42 0-15.24-6.82-15.24-15.24V658.52c0-.18.02-.35.03-.53-.01-.18-.03-.36-.03-.53V451c0-8.41 6.82-15.23 15.24-15.23h68.64V386.9c0-23.87 6.5-46.23 17.78-65.47l-138.9-24.22A15.245 15.245 0 010 282.19V189c0-8.42 6.82-15.24 15.24-15.24h160.3c6.22 0 11.56 3.73 13.92 9.07l20.12-169.65c.91-7.67 7.41-13.45 15.13-13.45h577.34c7.72 0 14.22 5.78 15.13 13.45l19.68 165.95c2.79-3.28 6.95-5.37 11.6-5.37h160.3c8.42 0 15.24 6.82 15.24 15.24zM893.02 466.24v175.98h53.4V466.24h-53.4zm53.4 207.52H803.55v150.77h142.87V673.76zm-723.21 0H80.34v150.77h142.87V673.76zM80.34 642.22h53.4V466.24h-53.4v175.98zM30.48 269.38l129.82 22.65v-87.8H30.48v65.15zm179.5-.71c14.91-6.8 31.32-10.85 48.59-11.52l15.54-169.1c.72-7.84 7.3-13.84 15.17-13.84h431.48c7.88 0 14.46 6 15.17 13.84l15.53 168.98h11.69c19.12 0 37.27 4.18 53.64 11.64L788.51 30.21H238.25l-28.27 238.46zm510.88-11.64l-14-152.34H303.18l-14 152.34h431.68zM862.55 386.9c0-54.81-44.59-99.4-99.4-99.4H263.61c-54.81 0-99.4 44.59-99.4 99.4v157.46h227.2V342.4c0-8.41 6.82-15.23 15.23-15.23 8.42 0 15.24 6.82 15.24 15.23v201.96h37.14V342.4c0-8.41 6.82-15.23 15.23-15.23 8.42 0 15.24 6.82 15.24 15.23v201.96h44.65V342.4c0-8.41 6.82-15.23 15.24-15.23 8.41 0 15.23 6.82 15.23 15.23v201.96h44.65V342.4c0-8.41 6.82-15.23 15.24-15.23s15.24 6.82 15.24 15.23v201.96h222.81V386.9zM164.21 642.22h698.34v-67.38H164.21v67.38zm829.32-437.99H863.7v87.8l129.83-22.65v-65.15z"/><path id="Path 2" fill-rule="evenodd" fill="#686868" class="shp0" d="M354.09 392.12c0 41.23-33.54 74.76-74.76 74.76-41.22 0-74.76-33.53-74.76-74.76 0-41.22 33.54-74.76 74.76-74.76 41.22 0 74.76 33.54 74.76 74.76zm-30.47 0c0-24.42-19.87-44.29-44.29-44.29-24.42 0-44.29 19.87-44.29 44.29 0 24.42 19.87 44.29 44.29 44.29 24.42 0 44.29-19.87 44.29-44.29zm494.77 0c0 41.23-33.54 74.76-74.76 74.76-41.23 0-74.77-33.53-74.77-74.76 0-41.22 33.54-74.76 74.77-74.76 41.22 0 74.76 33.54 74.76 74.76zm-30.48 0c0-24.42-19.86-44.29-44.28-44.29-24.43 0-44.29 19.87-44.29 44.29 0 24.42 19.86 44.29 44.29 44.29 24.42 0 44.28-19.87 44.28-44.29z"/></g></symbol><symbol id="hiking-man" viewBox="0 0 768 1024"><defs><clipPath clipPathUnits="userSpaceOnUse" id="cp1"><path d="M0 0h768v1024H0z"/></clipPath></defs><style/><g id="Page 1" clip-path="url(#cp1)"><path id="Path 1" fill-rule="evenodd" fill="#686868" class="shp0" d="M766.73 380.65l-27.96 74.29c-1.45 3.84-4.35 6.82-7.93 8.47v545.33c0 8.43-6.83 15.26-15.25 15.26h-42.33c-8.42 0-15.25-6.83-15.25-15.26V466.5l-181.61 7.83c-.22.01-.44.01-.67.01a15.2 15.2 0 01-5.28-.94c-2.42-.71-4.65-2.03-6.47-3.84l-33.42-33.43-18.57 106.01 86.45 152.61c3.69 6.4 5.98 13.52 6.76 21.06.53 3.08.78 6.01.78 8.93v208.67l39.8 4.62c19.81 2.31 34.8 19.08 34.88 39.02l.06 16.99c.01 4.06-1.59 7.95-4.45 10.83a15.26 15.26 0 01-10.8 4.49H413.98c-8.43 0-15.26-6.83-15.26-15.26V736.35l-79.51-140.37-39.08 141.22c-1.91 7.13-5.32 13.78-10.11 19.67-1.8 2.54-3.68 4.79-5.76 6.86-.05.06-.11.12-.16.17L123.94 899.81l24.16 30.5c12.38 15.64 11.12 38.1-2.93 52.25l-11.97 12.06c-2.86 2.88-6.74 4.5-10.8 4.51h-.03c-4.04 0-7.92-1.61-10.78-4.47L4.47 887.54c-5.96-5.95-5.96-15.61 0-21.57l39.61-39.61.07-.07c.06-.05.11-.11.16-.16l136.04-130.29 48.74-166.82 11.71-66.85c-1.42-.07-2.85-.2-4.29-.45l-78.54-13.76c-18.9-3.31-31.59-21.39-28.28-40.3l9.93-56.65-30.96-7.47c-7.86-1.9-12.87-9.61-11.42-17.57l29.85-163.95a15.3 15.3 0 016.74-10.09c3.54-2.28 7.87-3 11.97-1.98l27.84 6.96 4.58-26.19c3.32-18.91 21.39-31.6 40.3-28.28l78.54 13.77c9.13 1.6 17.11 6.68 22.46 14.3 5.35 7.62 7.42 16.85 5.82 25.99l-9.88 56.35c1.42.07 2.85.2 4.29.45l18.96 3.33 5.62-30.88a48.483 48.483 0 01-4.62-4.35c-8.85-9.51-13.47-21.86-13-34.78l3.59-99.83c.96-26.75 23.46-47.7 50.25-46.76l57 2.05c12.92.46 24.91 5.96 33.76 15.47 8.85 9.51 13.47 21.86 13.01 34.78l-3.6 99.83c-.46 12.92-5.96 24.91-15.46 33.76-8.28 7.7-18.71 12.15-29.79 12.88l-6.87 48.1c3.38 3.35 6.5 7.02 9.3 11 11.99 17.1 16.8 37.68 13.66 58.14l57.57 55.18 146.35-6.31 2.53-.12V165.71c0-8.43 6.83-15.26 15.25-15.26h42.32c8.43 0 15.26 6.83 15.26 15.26V361.1l20.84-1.06c5.12-.27 10.05 2.09 13.09 6.24 3.03 4.16 3.77 9.56 1.96 14.37zM643.31 436.6l-1.75-40.55-137.62 5.94c-4.15.17-8.21-1.35-11.21-4.23L377.06 286.9c-6.09-5.83-6.29-15.49-.46-21.57s15.49-6.29 21.57-.46l19.31 18.51a50.5 50.5 0 00-4.56-7.95c-7.65-10.9-19.02-18.16-32.02-20.44l-31.04-5.44c-.53-.04-1.06-.1-1.6-.19-.48-.09-.95-.2-1.41-.33l-32.37-5.68c-2.29-.39-4.57 1.2-4.97 3.5l-47.89 273.24 48.18 8.44c4.79.84 8.89 3.91 11.05 8.27l.26.53c.13.27.25.54.4.8l6.09 10.75c.01.01.01.02.02.04l99.63 175.88c1.3 2.3 1.98 4.89 1.98 7.53v192.16l46.25 5.37V724.74c0-1.28-.14-2.63-.41-4.12-.08-.45-.14-.9-.18-1.36-.31-3.37-1.3-6.52-2.94-9.36l-89.21-157.49a15.26 15.26 0 01-1.75-10.15l23.22-132.48-86.17-86.17c-5.95-5.95-5.95-15.61 0-21.57 5.96-5.96 15.62-5.96 21.58 0l141.54 141.55 162.15-6.99zM542.26 968.34L429.23 955.2v23.64h120.92v-1.68a8.923 8.923 0 00-7.89-8.82zm-244.31-409.9l-.63-1.12-42.54-7.45-46.29 158.45c-.75 2.56-2.16 4.89-4.09 6.74L75.44 838.55l29.47 37.22 137.85-133.68c.88-.89 1.72-1.91 2.56-3.12.25-.38.53-.75.83-1.1 2.17-2.6 3.69-5.53 4.54-8.7l47.26-170.73zM124.18 949.25l-32.72-41.32-.04-.04-37.88-47.85-16.71 16.71 85.5 85.51 1.19-1.19c3.17-3.2 3.46-8.28.66-11.82zm122.57-521.07l12.97-74 35.57-202.95c.4-2.29-1.2-4.57-3.49-4.97l-78.54-13.77c-2.3-.4-4.58 1.2-4.98 3.49l-48.53 276.95c-.4 2.29 1.2 4.57 3.49 4.97l78.54 13.77c2.3.4 4.57-1.2 4.97-3.49zM144.9 320.9l23.46-133.86-14.17-3.54-24.36 133.76 15.07 3.64zm223.86-99.01l17.4 3.05c4.9.86 9.64 2.17 14.2 3.87l4.41-30.81-31.3-1.13c-.05 0-.1-.01-.15-.01l-4.56 25.03zm-7.97-174l-1.27 35.34c23.36-5.77 63.93-19.07 88.52-45.81-3.18-2.98-7.24-4.69-11.58-4.85l-57-2.05c-.22-.01-.44-.01-.66-.01-9.64 0-17.66 7.66-18.01 17.38zm89.44 103.17l2.78-77.09c-32.63 25.11-74.05 36.49-94.63 40.88l-1.18 32.87c-.17 4.78 1.55 9.36 4.85 12.9 1.23 1.33 2.63 2.45 4.15 3.33 1 .35 1.95.8 2.84 1.33 1.76.65 3.61 1.03 5.53 1.1l57 2.05c4.74.16 9.36-1.55 12.9-4.85 3.55-3.3 5.59-7.74 5.76-12.52zm279.74 240.63l-10.63.54c-1.2.31-2.45.48-3.75.48h-5.82l-37.74 1.91 1.77 40.94 40.04-.99 16.13-42.88zm-41.45-29.49h11.81V180.96h-11.81V362.2zm11.81 104.23h-11.81v527.06h11.81V466.43z"/></g></symbol><symbol id="motorbike" viewBox="0 0 793 552"><defs><clipPath clipPathUnits="userSpaceOnUse" id="cp1"><path d="M0 0h793v552H0z"/></clipPath></defs><style>.shp0{fill:#5e6968;stroke:#f9fafb;stroke-width:8}</style><g id="Page 1" clip-path="url(#cp1)" fill="#686868"><path id="Path 1" class="shp0" d="M396.11 207.43c46.56-20.65 79.49-57.8 97.87-110.44L462.1 85.84c-15.18 43.45-41.95 73.94-79.6 90.67-95.72 42.54-232.28-14.02-233.64-14.58l-13.14 31.1c4.38 1.85 79.8 33.17 162.34 33.17 32.9 0 66.93-4.96 98.05-18.77z"/><path id="Path 2" fill-rule="evenodd" class="shp0" d="M771.7 380.2c-17.14 28.97-44.53 49.5-77.11 57.84a126.033 126.033 0 01-31.35 3.98c-57.48 0-107.6-38.95-121.91-94.69-11.41-44.56 2.6-89.74 32.9-120.2l-24.05-33.65c-39.11 34.97-74.11 90.46-86.49 178.61-.94 6.77-5.9 12.32-12.52 14.01l-101.03 25.92c-1.39.36-2.8.52-4.18.52-6.27 0-12.18-3.52-15.11-9.32-2.87-5.69-49.65-96.07-140.41-128.54l-2.19 24.53c45.28 10.25 82.17 45.04 94.1 91.56 17.23 67.26-23.46 136-90.71 153.25a125.822 125.822 0 01-31.36 3.98c-57.49 0-107.62-38.94-121.91-94.7-8.35-32.58-3.52-66.46 13.62-95.4 17.13-28.96 44.52-49.49 77.1-57.84 8.37-2.15 16.93-3.43 25.51-3.82l2.7-30.25c-39.28-6.71-85.23-2.15-137.86 22.11L5.31 257.42c58.58-26.97 110.09-32.31 154.42-25.15l.01-.08c2.65.38 265.29 40.65 360.79-56.9l.25.24c14.54-13.85 29.73-25.15 44.82-34.38L447.76 39.13l-42.31 10.86-8.4-32.72 50.88-13.05c5.39-1.3 11.07-.04 15.25 3.59l134.54 116.48c51.64-23.01 95.06-24.09 96.05-24.09l.4 33.77c-4.31.07-60.71 1.74-117.21 38.91l24.11 33.74c9.51-5.42 19.87-9.7 30.98-12.55 10.28-2.64 20.83-3.98 31.36-3.98 57.49 0 107.61 38.95 121.91 94.69 8.35 32.58 3.5 66.47-13.62 95.42zM467.3 246.93c-57.35 21.75-125.92 27.79-184.27 27.79-7.71 0-15.21-.1-22.51-.29 49.31 34.72 80.71 80.3 93.69 101.66l77.75-19.94c7.17-43.33 19.63-79.31 35.34-109.22zm-282.09 86.34l-8.04 90.28-33.64-3.01 8.04-90.24c-4.74.47-9.45 1.29-14.09 2.48-23.85 6.1-43.88 21.13-56.43 42.32-12.53 21.18-16.07 45.97-9.96 69.82 10.46 40.81 47.13 69.31 89.19 69.31 7.69 0 15.42-.99 22.96-2.92 49.22-12.62 79-62.94 66.39-112.16-8.34-32.5-33.33-57.19-64.42-65.88zm567.38-40.1c-10.46-40.79-47.13-69.29-89.18-69.29-7.7 0-15.43.99-22.97 2.92a91.746 91.746 0 00-19.59 7.51l51.07 71.49-27.48 19.62-50.21-70.28c-19.45 22.13-28.02 53.18-20.17 83.82 10.45 40.78 47.12 69.28 89.18 69.28 7.7 0 15.43-.99 22.97-2.92 23.84-6.1 43.87-21.15 56.42-42.32 12.54-21.18 16.07-45.98 9.96-69.83z"/></g></symbol><symbol id="mountain" viewBox="0 0 1007 1024"><defs><clipPath clipPathUnits="userSpaceOnUse" id="cp1"><path d="M0 0h1007v1024H0z"/></clipPath></defs><style/><g id="Page 1" clip-path="url(#cp1)"><path id="Path 1" fill-rule="evenodd" fill="#686868" class="shp0" d="M1003.84 998.52c4.71 6.4 3.94 15.59-1.81 21.08-6.9 6.6-18.35 5.64-24.01-2.05L749.63 707.59l-21.02 21.03c-6.26 6.26-16.41 6.26-22.68 0l-57.07-57.08-57.08 57.08c-6.26 6.26-16.41 6.26-22.67 0l-57.08-57.08-57.07 57.08c-6.26 6.26-16.41 6.26-22.68 0l-57.07-57.08-57.08 57.08c-6.26 6.26-16.41 6.26-22.67 0l-21.02-21.03-228.39 309.96c-5.32 7.22-15.89 8.59-22.9 3.03-6.67-5.28-7.96-15.22-2.92-22.05l239.45-324.97L496 352.84V16.03C496 7.18 503.18 0 512.03 0c8.86 0 16.04 7.18 16.04 16.03v18.18h35.28c8.85 0 16.03 7.17 16.03 16.03 0 8.86-7.18 16.04-16.03 16.04h-35.28v138.96h207.38V66.28H631.76c-8.86 0-16.03-7.18-16.03-16.04s7.17-16.03 16.03-16.03h119.72c8.86 0 16.04 7.17 16.04 16.03v69.49h137.9c13.97 0 21.23 17.47 11.33 27.37l-74.18 74.18 74.19 74.17c9.9 9.9 2.64 27.38-11.34 27.38H665.97c-8.85 0-16.03-7.18-16.03-16.04v-69.48H528.08v115.53l85.08 115.47c5.19 7.03 3.64 17.24-3.39 22.42-7.04 5.18-17.24 3.64-22.42-3.39l-75.31-102.2-218.36 296.34 13.12 13.12 57.07-57.07c6.27-6.26 16.42-6.26 22.68 0l57.08 57.07 57.07-57.07c6.26-6.26 16.41-6.26 22.68 0l57.07 57.07 57.08-57.07c6.26-6.26 16.41-6.26 22.67 0l57.08 57.07 13.12-13.12-105.25-142.83c-5.25-7.13-3.73-17.16 3.4-22.42 7.13-5.24 17.17-3.73 22.42 3.4l352.87 478.89zM682 237.31v53.45h184.7l-58.14-58.15c-6.26-6.26-6.26-16.41 0-22.67l58.15-58.15h-99.19v69.49c0 8.85-7.18 16.03-16.04 16.03H682z"/><path id="Path 2" fill-rule="evenodd" fill="#686868" class="shp0" d="M136.83 135.76c0-37.13 30.21-67.35 67.34-67.35.36 0 .72.01 1.08.01 0-.36-.01-.72-.01-1.07C205.24 30.21 235.45 0 272.59 0c37.13 0 67.34 30.21 67.34 67.35 0 .35 0 .71-.01 1.07 37.55-.52 68.43 29.85 68.43 67.34 0 37.13-30.21 67.35-67.35 67.35H204.17c-37.13 0-67.34-30.22-67.34-67.35zm32.07 0c0 19.45 15.82 35.28 35.27 35.28H341c19.45 0 35.28-15.83 35.28-35.28 0-19.45-15.83-35.28-35.28-35.28-5.32 0-10.42 1.16-15.18 3.43-6.06 2.9-13.5 1.62-18.25-3.13-4.76-4.75-6.03-12.19-3.13-18.25 2.27-4.76 3.42-9.87 3.42-15.18 0-19.45-15.82-35.28-35.27-35.28-19.45 0-35.28 15.83-35.28 35.28 0 5.32 1.15 10.42 3.43 15.18 2.9 6.06 1.62 13.5-3.13 18.25s-12.19 6.03-18.25 3.13a35.018 35.018 0 00-15.19-3.43c-19.45 0-35.27 15.83-35.27 35.28zm769.66 307.86c0 .36-.01.72-.01 1.08.36-.01.72-.01 1.07-.01 37.14 0 67.35 30.21 67.35 67.35 0 37.13-30.21 67.34-67.35 67.34H802.8c-37.14 0-67.35-30.21-67.35-67.34 0-37.14 30.21-67.35 67.35-67.35.36 0 .71 0 1.07.01v-1.08c0-37.13 30.21-67.34 67.34-67.34s67.35 30.21 67.35 67.34zm-14.12 36.57c-6.06 2.9-13.5 1.62-18.25-3.13-4.76-4.75-6.03-12.19-3.13-18.26 2.27-4.75 3.43-9.86 3.43-15.18 0-19.45-15.83-35.27-35.28-35.27-19.45 0-35.28 15.82-35.28 35.27 0 5.32 1.16 10.43 3.43 15.18 2.9 6.07 1.63 13.51-3.13 18.26-4.75 4.75-12.18 6.03-18.25 3.13-4.76-2.28-9.86-3.43-15.18-3.43-19.45 0-35.28 15.83-35.28 35.28 0 19.45 15.83 35.27 35.28 35.27h136.82c19.46 0 35.28-15.82 35.28-35.27 0-19.45-15.82-35.28-35.28-35.28-5.31 0-10.42 1.15-15.18 3.43z"/><path id="Path 3" fill-rule="evenodd" fill="#686868" class="shp0" d="M0 580.45c0-37.49 30.88-67.86 68.42-67.34v-1.07c0-37.14 30.21-67.35 67.34-67.35s67.34 30.21 67.34 67.35v1.07h1.07c37.14 0 67.35 30.21 67.35 67.34s-30.21 67.35-67.35 67.35H67.35C30.21 647.8 0 617.58 0 580.45zm32.07 0c0 19.45 15.82 35.28 35.28 35.28h136.82c19.46 0 35.28-15.83 35.28-35.28 0-19.45-15.82-35.28-35.28-35.28-5.32 0-10.42 1.16-15.18 3.43-6.02 2.88-13.53 1.59-18.25-3.13-4.72-4.72-6.01-12.23-3.13-18.25 2.27-4.76 3.43-9.86 3.43-15.18 0-19.45-15.83-35.28-35.28-35.28-19.45 0-35.28 15.83-35.28 35.28 0 5.32 1.16 10.42 3.43 15.18 2.9 6.07 1.62 13.5-3.13 18.25s-12.19 6.03-18.25 3.13a34.975 34.975 0 00-15.18-3.43c-19.46 0-35.28 15.83-35.28 35.28z"/></g></symbol><symbol id="pack" viewBox="0 0 660 772"><defs><clipPath clipPathUnits="userSpaceOnUse" id="cp1"><path d="M0 0h660v772H0z"/></clipPath></defs><style>.shp0{stroke:#f9fafb;stroke-width:4}</style><g id="Page 1" clip-path="url(#cp1)"><path id="Path 1" fill-rule="evenodd" fill="#686868" class="shp0" d="M423.35 245.27H224.54V144.09h198.81v101.18zm-32-69.18H256.54v37.17h134.81v-37.17z"/><path id="Path 2" fill-rule="evenodd" fill="#686868" class="shp0" d="M645.17 664.59c-15.12 16.12-39.63 18.37-72.84 18.68l1.36 26.68c.81 15.92-4.71 30.97-15.54 42.37-10.84 11.41-25.59 17.68-41.53 17.68H143.48c-15.95 0-30.7-6.27-41.53-17.68-10.84-11.4-16.36-26.45-15.55-42.37l1.37-26.68c-33.21-.31-57.71-2.56-72.84-18.68C5.11 654.14.96 639.38 2.22 619.48c7.03-110.37 18.26-176.06 36.41-212.99 17.22-35.04 41.08-45 65.7-47.39l8.17-160c.92-18 9.93-34.65 24.39-45.69l-2.15-23.46c-1.48-16 3.5-31.17 14.03-42.7 10.51-11.53 25.16-17.88 41.23-17.88h34.54v-8.06c0-32.71 26.6-59.31 59.3-59.31h80.21c32.69 0 59.3 26.6 59.3 59.31v8.06h46.75c16.07 0 30.71 6.35 41.24 17.88 10.51 11.54 15.5 26.7 14.02 42.7l-2.16 23.46c14.29 10.91 23.47 27.58 24.39 45.7l8.18 159.98c24.62 2.39 48.48 12.36 65.7 47.4 18.15 36.93 29.38 102.62 36.41 212.98 1.26 19.9-2.89 34.67-12.71 45.12zm-103.44 46.99l-24.95-488.33-7.83 85.03c-2.9 31.6-30.94 57.34-62.64 57.63v121.04c10.62 7.28 17.68 20.01 17.68 34.5v61.03c0 14.48-7.06 27.22-17.68 34.51V738h70.31c7.08 0 13.6-2.74 18.33-7.73 4.73-4.97 7.15-11.61 6.78-18.69zM143.48 738h58.09V616.99c-10.61-7.29-17.67-20.03-17.67-34.51v-61.03c0-14.49 7.06-27.23 17.67-34.5V364.53c-26.39-5.75-47.9-28.79-50.44-56.25l-7.82-85.08-24.95 488.38c-.36 7.08 2.05 13.72 6.78 18.69 4.74 4.99 11.24 7.73 18.34 7.73zM89.4 651.28l13.29-260.04c-30.59 4.53-56.06 34.28-68.53 230.27-.67 10.44.72 17.58 4.11 21.19 6.75 7.19 26.61 8.39 51.13 8.58zM400.38 738h13.93V623.41h-13.93V738zm0-257.48h13.93V365.93h-13.93v114.59zm25.46 110.89c2.9 0 6.15-3.67 6.15-8.93v-61.03c0-5.26-3.25-8.93-6.15-8.93h-36.98c-2.91 0-6.15 3.67-6.15 8.93v61.03c0 5.26 3.24 8.93 6.15 8.93h36.98zM279.51 738h88.87V616.98c-10.61-7.28-17.67-20.02-17.67-34.5v-61.03c0-14.49 7.06-27.22 17.67-34.5V365.93h-88.87v121.02c10.61 7.28 17.66 20.01 17.66 34.5v61.03c0 14.48-7.05 27.22-17.66 34.5V738zm-45.94 0h13.94V623.41h-13.94V738zm13.94-372.07h-13.94v114.59h13.94V365.93zm11.52 225.48c2.91 0 6.14-3.67 6.14-8.93v-61.03c0-5.26-3.24-8.93-6.14-8.93h-36.98c-2.91 0-6.15 3.67-6.15 8.93v61.03c0 5.26 3.24 8.93 6.15 8.93h36.98zM166.6 127.02L183 305.34c1.43 15.5 15.78 28.59 31.34 28.59h231.42c15.56 0 29.91-13.09 31.34-28.59l16.4-178.32c.64-6.94-1.42-13.4-5.8-18.21-4.39-4.8-10.64-7.45-17.6-7.45H190c-6.97 0-13.21 2.65-17.59 7.45-4.38 4.81-6.45 11.27-5.81 18.21zm89.94-57.65h134.81v-8.06c0-15.06-12.25-27.31-27.3-27.31h-80.2c-15.06 0-27.31 12.25-27.31 27.31v8.06zm369.4 552.14C613.46 425.5 588 395.76 557.41 391.24l13.28 260.04c24.52-.19 44.4-1.39 51.14-8.58 3.39-3.61 4.77-10.75 4.11-21.19z"/></g></symbol></svg>