<svg xmlns="http://www.w3.org/2000/svg" viewBox="0 0 660 772" width="660" height="772">
	<defs>
		<clipPath clipPathUnits="userSpaceOnUse" id="cp1">
			<path d="M0 0L660 0L660 772L0 772Z" />
		</clipPath>
	</defs>
	<style>
		tspan { white-space:pre }
		.shp0 { fill: #5e6968;stroke: #f9fafb;stroke-width: 4 } 
	</style>
	<g id="Page 1" clip-path="url(#cp1)">
		<path id="Path 1" fill-rule="evenodd" class="shp0" d="M423.35 245.27L224.54 245.27L224.54 144.09L423.35 144.09L423.35 245.27ZM391.35 176.09L256.54 176.09L256.54 213.26L391.35 213.26L391.35 176.09Z" />
		<path id="Path 2" fill-rule="evenodd" class="shp0" d="M645.17 664.59C630.05 680.71 605.54 682.96 572.33 683.27L573.69 709.95C574.5 725.87 568.98 740.92 558.15 752.32C547.31 763.73 532.56 770 516.62 770L143.48 770C127.53 770 112.78 763.73 101.95 752.32C91.11 740.92 85.59 725.87 86.4 709.95L87.77 683.27C54.56 682.96 30.06 680.71 14.93 664.59C5.11 654.14 0.96 639.38 2.22 619.48C9.25 509.11 20.48 443.42 38.63 406.49C55.85 371.45 79.71 361.49 104.33 359.1L112.5 199.1C113.42 181.1 122.43 164.45 136.89 153.41L134.74 129.95C133.26 113.95 138.24 98.78 148.77 87.25C159.28 75.72 173.93 69.37 190 69.37L224.54 69.37L224.54 61.31C224.54 28.6 251.14 2 283.84 2L364.05 2C396.74 2 423.35 28.6 423.35 61.31L423.35 69.37L470.1 69.37C486.17 69.37 500.81 75.72 511.34 87.25C521.85 98.79 526.84 113.95 525.36 129.95L523.2 153.41C537.49 164.32 546.67 180.99 547.59 199.11L555.77 359.09C580.39 361.48 604.25 371.45 621.47 406.49C639.62 443.42 650.85 509.11 657.88 619.47C659.14 639.37 654.99 654.14 645.17 664.59ZM541.73 711.58L516.78 223.25L508.95 308.28C506.05 339.88 478.01 365.62 446.31 365.91L446.31 486.95C456.93 494.23 463.99 506.96 463.99 521.45L463.99 582.48C463.99 596.96 456.93 609.7 446.31 616.99L446.31 738L516.62 738C523.7 738 530.22 735.26 534.95 730.27C539.68 725.3 542.1 718.66 541.73 711.58ZM143.48 738L201.57 738L201.57 616.99C190.96 609.7 183.9 596.96 183.9 582.48L183.9 521.45C183.9 506.96 190.96 494.22 201.57 486.95L201.57 364.53C175.18 358.78 153.67 335.74 151.13 308.28L143.31 223.2L118.36 711.58C118 718.66 120.41 725.3 125.14 730.27C129.88 735.26 136.38 738 143.48 738ZM89.4 651.28L102.69 391.24C72.1 395.77 46.63 425.52 34.16 621.51C33.49 631.95 34.88 639.09 38.27 642.7C45.02 649.89 64.88 651.09 89.4 651.28ZM400.38 738L414.31 738L414.31 623.41L400.38 623.41L400.38 738ZM400.38 480.52L414.31 480.52L414.31 365.93L400.38 365.93L400.38 480.52ZM425.84 591.41C428.74 591.41 431.99 587.74 431.99 582.48L431.99 521.45C431.99 516.19 428.74 512.52 425.84 512.52L388.86 512.52C385.95 512.52 382.71 516.19 382.71 521.45L382.71 582.48C382.71 587.74 385.95 591.41 388.86 591.41L425.84 591.41ZM279.51 738L368.38 738L368.38 616.98C357.77 609.7 350.71 596.96 350.71 582.48L350.71 521.45C350.71 506.96 357.77 494.23 368.38 486.95L368.38 365.93L279.51 365.93L279.51 486.95C290.12 494.23 297.17 506.96 297.17 521.45L297.17 582.48C297.17 596.96 290.12 609.7 279.51 616.98L279.51 738ZM233.57 738L247.51 738L247.51 623.41L233.57 623.41L233.57 738ZM247.51 365.93L233.57 365.93L233.57 480.52L247.51 480.52L247.51 365.93ZM259.03 591.41C261.94 591.41 265.17 587.74 265.17 582.48L265.17 521.45C265.17 516.19 261.93 512.52 259.03 512.52L222.05 512.52C219.14 512.52 215.9 516.19 215.9 521.45L215.9 582.48C215.9 587.74 219.14 591.41 222.05 591.41L259.03 591.41ZM166.6 127.02L183 305.34C184.43 320.84 198.78 333.93 214.34 333.93L445.76 333.93C461.32 333.93 475.67 320.84 477.1 305.34L493.5 127.02C494.14 120.08 492.08 113.62 487.7 108.81C483.31 104.01 477.06 101.36 470.1 101.36L190 101.36C183.03 101.36 176.79 104.01 172.41 108.81C168.03 113.62 165.96 120.08 166.6 127.02ZM256.54 69.37L391.35 69.37L391.35 61.31C391.35 46.25 379.1 34 364.05 34L283.85 34C268.79 34 256.54 46.25 256.54 61.31L256.54 69.37ZM625.94 621.51C613.46 425.5 588 395.76 557.41 391.24L570.69 651.28C595.21 651.09 615.09 649.89 621.83 642.7C625.22 639.09 626.6 631.95 625.94 621.51Z" />
	</g>
</svg>