<svg xmlns="http://www.w3.org/2000/svg" viewBox="0 0 51.153 51.298" height="193.882" width="193.335"><path d="M25.4 51.008c0-.26.106-.365.236-.236.129.13.129.341 0 .47-.13.13-.236.024-.236-.234zm-5.644-.706c0-.259.106-.365.235-.235.13.13.13.34 0 .47-.13.13-.235.024-.235-.235zm10.6-3.448c-.452-1.887-.896-3.63-.986-3.872-.09-.243-.015-.441.167-.441s.69 1.679 1.128 3.731c.438 2.052.733 3.795.655 3.872-.077.077-.51-1.403-.963-3.29zm-16.234 1.86c0-.194.154-.59.342-.881.188-.292.342-.37.342-.177 0 .194-.154.591-.342.882-.188.291-.342.37-.342.176zm20.682-3.936c-1.117-2.245-1.945-4.169-1.84-4.274.106-.106 1.08 1.672 2.163 3.952 1.083 2.28 1.911 4.203 1.84 4.275-.072.071-1.045-1.707-2.163-3.953zm-14.69 3.164c.003-.157.16-.524.347-.815l.342-.53.005.597c.003.328-.153.695-.347.815-.194.12-.35.09-.347-.067zm5.286-.11c0-.258.106-.364.236-.235.129.13.129.341 0 .47-.13.13-.236.024-.236-.234zm-2.47-.529a.177.177 0 01.353 0c0 .097-.079.177-.176.177a.177.177 0 01-.176-.177zm4.993-.573c-.03-.51-.132-1.462-.228-2.117l-.176-1.19.372 1.184c.204.651.307 1.604.228 2.117l-.144.932zm-4.992-.132c0-.097.08-.177.176-.177a.177.177 0 010 .353.177.177 0 01-.176-.176zm-4.939-.353c0-.097.08-.176.176-.176.097 0 .177.079.177.176a.177.177 0 01-.353 0zm14.817.067c0-.125-.39-1.263-.866-2.528-.477-1.266-.747-2.302-.602-2.302.146 0 .611 1.063 1.033 2.362.423 1.299.693 2.437.601 2.528-.091.092-.166.065-.166-.06zm-9.436-1.478c.004-.776.076-1.052.16-.613.085.438.081 1.073-.007 1.41-.088.338-.157-.021-.153-.797zm2.027.882c0-.259.106-.365.236-.235.129.129.129.34 0 .47-.13.13-.236.023-.236-.235zm-4.586-.53c0-.29.154-.529.342-.529.188 0 .25.239.139.53-.112.29-.266.529-.342.529-.076 0-.139-.238-.139-.53zm20.094-.596l-.797-1.167 1.004.96c.553.527.912 1.052.797 1.166-.114.114-.566-.318-1.004-.96zm-31.03.067c0-.194.168-.352.374-.352.205 0 .275.158.155.352-.12.195-.288.353-.373.353-.086 0-.156-.158-.156-.353zm8.987-.425c.105-.525.353-1.38.55-1.9.199-.521.441-.867.54-.768.098.098-.15.953-.551 1.9-.401.948-.644 1.293-.539.768zm-2.425-.28c.127-.485.54-1.493.916-2.24.377-.746.764-1.277.86-1.18.097.095-.315 1.103-.916 2.238-.6 1.135-.987 1.667-.86 1.182zm-1.737-1.775c.698-1.17 1.35-2.046 1.45-1.946.1.1-.4 1.058-1.11 2.128-.71 1.07-1.363 1.946-1.45 1.946-.086 0 .413-.958 1.11-2.128zm22.339 1.422c-.208-.388-.298-.705-.201-.705.097 0 .346.317.554.705.207.388.298.706.201.706-.097 0-.346-.318-.554-.706zm-15.875-.135c0-.29.159-.627.353-.747.194-.12.353.02.353.311s-.16.628-.353.748c-.194.12-.353-.02-.353-.312zm-10.23-.154c0-.206.169-.48.376-.607.207-.128.449-.16.537-.071.09.088-.08.362-.376.607-.335.279-.538.305-.538.071zm28.257-.873l-.467-.778.636.609c.35.335.56.685.467.778-.093.092-.38-.182-.636-.61zm-21.731-3.88l-7.409-4.306-.109-1.323-.11-1.323h2.463l.113.752.113.753 6.35 3.648c3.492 2.007 6.502 3.653 6.688 3.657.186.005 3.322-1.69 6.968-3.765l6.629-3.773v-1.355l.793.213c.437.117.913.215 1.059.218.145.003.264.47.264 1.039v1.034l-.97.674c-.533.37-3.92 2.366-7.526 4.434s-6.86 3.753-7.232 3.745c-.372-.008-4.01-1.952-8.084-4.321zm18.344 3.278c-.12-.194-.05-.353.156-.353.205 0 .373.16.373.353 0 .194-.07.353-.155.353-.086 0-.254-.159-.374-.353zM6.703 40.097c.873-.799 1.905-1.615 2.293-1.814.388-.2.15.133-.529.739-.68.605-1.711 1.422-2.293 1.814-.632.425-.418.127.53-.74zm3.704-.026c.558-.582 1.173-1.058 1.367-1.058.194 0-.104.476-.661 1.058-.558.582-1.173 1.059-1.367 1.059-.194 0 .104-.477.661-1.059zm24.754.824c-.13-.13-.23-.487-.225-.794l.01-.559.375.644c.206.354.307.711.225.794-.083.082-.256.044-.386-.086zm8.923-.85l-1.221-1.083 1.323.95c.727.522 1.323 1.01 1.323 1.083 0 .074-.046.135-.102.135-.056 0-.651-.488-1.323-1.084zm-30.325-.132c0-.135.238-.483.529-.774.29-.291.529-.378.529-.194s-.238.532-.53.774c-.29.241-.528.329-.528.194zm25.752-.724a.177.177 0 01.353 0c0 .097-.08.177-.176.177a.177.177 0 01-.177-.177zm2.477-.697c-.278-.335-.305-.537-.071-.537.206 0 .48.169.608.376.127.207.16.449.07.538-.088.088-.362-.08-.607-.377zm-29.633-.37c.245-.295.519-.464.607-.376.09.09.057.331-.07.538-.129.207-.402.376-.608.376-.234 0-.208-.202.07-.537zm26.45.362a.177.177 0 01.353 0c0 .097-.079.176-.176.176a.177.177 0 01-.176-.176zM7.532 36.336c.739-.502 1.419-.838 1.511-.746.092.092-.375.503-1.04.913-.663.41-1.343.746-1.51.746-.168 0 .3-.41 1.039-.913zm36.92.737c0-.097.079-.177.176-.177a.177.177 0 010 .353.177.177 0 01-.177-.176zm-4.587-.353a.177.177 0 01.353 0c0 .097-.08.176-.176.176a.177.177 0 01-.177-.176zm-34.8-1.804c1.718-.875 3.21-1.506 3.315-1.4.105.104-1.198.829-2.894 1.61-1.697.78-3.189 1.41-3.315 1.4-.126-.01 1.176-.734 2.894-1.61zm41.768.723c-.922-.48-1.676-.952-1.676-1.048 0-.097.833.243 1.852.754 1.019.512 1.918.991 1.999 1.065.08.073.001.126-.176.117-.178-.009-1.078-.409-2-.888zm-4.675.2c-.12-.195-.059-.354.135-.354s.45.16.57.353c.12.194.06.353-.134.353s-.45-.159-.57-.353zm-24.865-1.677c.003-.34.156-.855.34-1.146.183-.291.666-.548 1.072-.57.494-.028.673.119.542.44-.107.266-.29.76-.404 1.1-.115.34.242.1.794-.532.55-.633 1.2-1.149 1.443-1.147.242.002.44-.155.44-.35 0-.194.151-.352.336-.352.184 0 .104.55-.177 1.223-.281.673-.511 1.317-.511 1.432 0 .115.159.11.353-.009.194-.12.353-.517.353-.882s.181-.776.404-.914l.404-.25-.235.935c-.129.514-.157.935-.062.935.094 0 .408-.437.698-.97.29-.534.533-.753.54-.486l.014.484.514-.427c.283-.234.673-.328.867-.208.194.12.263.451.154.736-.11.285-.42.518-.69.518-.27 0-.492.159-.492.353 0 .194.15.352.332.352.183 0 .432-.16.554-.358.122-.197.394-.252.604-.122.21.13.293.091.183-.086-.11-.178-.015-.56.21-.849.226-.288.807-.58 1.292-.647.485-.067.935-.265 1-.44a.513.513 0 01.44-.32c.179 0 .284.195.236.433-.049.238-.287.646-.53.907-.242.261-.44.72-.44 1.022v.547l.515-.428c.284-.235.612-.73.73-1.101.117-.371.367-.674.555-.674.203 0 .182.297-.053.736-.216.404-.314.815-.216.913.098.097.436-.274.752-.824l.576-1.002-.217 1.032-.217 1.032.609-.503.609-.502-.404.758-.404.759H26.4l.212-.847c.117-.466.125-.847.018-.847s-.321.345-.477.765l-.283.765-3.057.106-3.057.106v-.824l-.424.423c-.232.233-.788.423-1.234.423-.54 0-.81-.207-.806-.617zm1.394-1.302c-.006-.205-.244-.065-.529.311-.285.377-.513.853-.507 1.059.006.205.245.065.53-.311.284-.377.512-.853.506-1.059zm2.282.192c-.106-.106-.34.041-.52.327-.18.285-.326.678-.323.872.003.194.238.046.52-.327.283-.374.428-.767.323-.872zm6.48.484c-.108-.109-.305.087-.438.435l-.24.632.438-.435c.241-.239.35-.524.24-.632zm-3.812.009a.177.177 0 00-.176-.177.177.177 0 00-.176.177c0 .097.079.176.176.176.097 0 .176-.08.176-.176zm1.059-.353a.177.177 0 00-.177-.176.177.177 0 00-.176.176c0 .097.08.176.176.176.097 0 .177-.08.177-.176zm3.175-.353a.177.177 0 00-.177-.176.177.177 0 00-.176.176c0 .097.08.177.176.177.097 0 .177-.08.177-.177zm3.855 1.852a39.87 39.87 0 01-.186-1.41c-.095-.776-.011-1.324.201-1.324.2 0 .363.238.363.53 0 .29.127.529.282.529.156 0 .46-.177.675-.393.216-.216.558-.29.76-.165.203.125.27.486.148.803-.148.385-.084.491.192.32.227-.14.413-.177.413-.082 0 .094-.25.421-.555.726-.305.305-.94.554-1.41.554-.472 0-.869-.04-.883-.088zm1.966-.617c.12-.194-.03-.353-.332-.353-.303 0-.55.159-.55.353 0 .194.149.353.332.353.182 0 .43-.16.55-.353zm-1.353-.588c-.13-.13-.235-.024-.235.235s.106.365.235.235a.334.334 0 000-.47zm1.176-.294a.177.177 0 00-.176-.176.177.177 0 00-.177.176.177.177 0 00.353 0zm9.888.896c-.285-.18-.432-.415-.327-.52.106-.106.498.039.872.322.374.283.521.517.327.52-.194.003-.586-.142-.872-.322zm-37.632-2c.942-.29 1.79-.45 1.885-.354.095.094-.438.341-1.183.548-.746.207-1.595.367-1.886.354-.29-.012.242-.26 1.184-.549zm40.091.233c0-.188.239-.25.53-.139.29.112.529.266.529.342 0 .076-.238.139-.53.139-.29 0-.529-.154-.529-.342zm-1.234-.364l-.706-.303.597-.025c.328-.013.694.134.814.328s.17.342.11.328c-.06-.013-.427-.161-.815-.328zM.029 31.12c.113-.121 1.74-.68 3.616-1.244 1.876-.563 3.41-.906 3.41-.761 0 .144-1.309.614-2.91 1.044-1.6.43-3.227.871-3.616.98-.388.11-.613.101-.5-.02zm49.184-.364c-.776-.234-2.165-.648-3.087-.92-.922-.272-1.676-.615-1.676-.763 0-.148.199-.207.441-.131.243.076 1.75.56 3.352 1.076 1.6.516 2.91 1.005 2.91 1.086 0 .081-.119.132-.264.113-.146-.019-.9-.226-1.676-.46zM14.11 27.9v-2.646h.53c.352 0 .529.353.529 1.059v1.058h2.116v-1.058c0-.706.177-1.059.53-1.059h.529v5.292H17.286V28.077H15.17V30.546H14.11zm5.292 0v-2.646h1.058v5.292h-1.058zm2.117 0v-2.646h1.366l.112 1.147.111 1.146.626-1.146c.392-.719.896-1.147 1.35-1.147h.726l-.772 1.25-.772 1.248.924 1.397.925 1.397h-1.72l-.407-1.235c-.224-.679-.554-1.234-.733-1.234-.179 0-.325.555-.325 1.234v1.235H21.52zm4.939 0v-2.646h1.411v5.292h-1.411zm2.116 0v-2.646h.67c.411 0 1.02.58 1.574 1.5l.904 1.499.014-1.5.013-1.499h1.411v5.292h-.646c-.405 0-.994-.626-1.579-1.676l-.932-1.675-.01 1.675-.008 1.676h-1.411zm5.998 1.94c-.437-.436-.706-1.175-.706-1.94 0-.764.269-1.503.706-1.94.388-.388 1.09-.706 1.562-.706.471 0 1.127.271 1.458.602.405.404.467.647.19.739-.227.075-.643-.054-.925-.288-.282-.234-.761-.33-1.066-.214l-.553.213.108 1.679.107 1.68h.701c.387 0 .754-.277.82-.618.072-.377-.098-.618-.436-.618-.306 0-.555-.158-.555-.352 0-.194.476-.353 1.058-.353H38.1v1.046c0 .673-.243 1.176-.682 1.41-.375.202-1.01.366-1.411.366s-1.046-.317-1.434-.705zm-32.28-4.586c-.12-.194-.05-.352.156-.352.205 0 .374.158.374.352 0 .194-.07.353-.156.353s-.254-.159-.374-.353zm1.235 0c0-.258.106-.364.235-.235.13.13.13.341 0 .47-.13.13-.235.024-.235-.235zm2.293 0c-.12-.194-.05-.352.156-.352.205 0 .373.158.373.352 0 .194-.07.353-.155.353-.086 0-.254-.159-.374-.353zm1.235.177c0-.097.08-.177.176-.177a.177.177 0 010 .353.177.177 0 01-.176-.176zm29.628-2.985c-1.798-1.754-3.425-3.189-3.615-3.189-.19 0-.09.357.224.794.314.437.828 1.27 1.143 1.852l.572 1.058-1.259-1.198c-.692-.66-1.226-1.323-1.187-1.474.038-.15-.796-1.08-1.854-2.064-1.059-.985-1.971-1.79-2.029-1.79-.057 0-.104.17-.104.378s.238.616.53.907c.29.291.526.716.523.945-.003.229-.152.648-.331.93l-.326.516-.676-.612-.677-.612-.453.546c-.25.3-.539.462-.642.359-.104-.104-.583.17-1.065.608-.482.439-.74.56-.574.268.167-.29.833-1.27 1.48-2.176.749-1.047 1.04-1.733.798-1.882-.21-.13-.629-.857-.933-1.616-.304-.76-.68-1.381-.837-1.381-.156 0-.7.743-1.208 1.652l-.924 1.653.657-.594c.361-.327.767-.595.9-.595.134 0 .139.42.01.931-.128.512-.25 1.207-.27 1.543-.022.337-.898 1.385-1.948 2.33-1.11.996-1.737 1.393-1.498.945.227-.424.57-.868.764-.987.193-.12.35-.376.35-.57 0-.194-.183-.24-.407-.1-.254.156-.311.096-.152-.162.14-.227.392-.329.56-.225.167.103.418.002.559-.226.167-.27.101-.318-.19-.138l-.445.276.255-.838.254-.838-1.328 1.234c-.73.68-1.202.997-1.048.706.154-.291-.477.185-1.403 1.058-1.1 1.037-1.484 1.273-1.109.679l.575-.91-1.01.149-1.008.148-.616 1.29c-.338.71-.62 1.37-.626 1.467-.006.097-.347.413-.757.703-.41.29-.826.53-.923.534-.097.004-.398.148-.668.32-.27.17.404-.775 1.499-2.103 1.095-1.328 1.991-2.542 1.991-2.698 0-.156.285-.284.634-.284.349 0 1.236-.617 1.972-1.37.816-.836 1.57-1.31 1.933-1.214l.595.155 1.692-2.352c.931-1.294 1.777-2.573 1.88-2.843.104-.27.33-.49.504-.49.173 0 .317.198.319.44.002.243.393 1.28.87 2.304l.867 1.862.688-.43.688-.429 1.57 1.736 1.572 1.735.607-.504.607-.504 2.816 2.892c1.549 1.59 2.957 2.892 3.13 2.892.173 0 .492.331.708.736.217.405.322.808.234.896-.088.088-1.632-1.275-3.43-3.029zm8.035 2.559c.439-.084 1.074-.081 1.411.007.337.088-.022.157-.798.153-.776-.004-1.052-.076-.613-.16zm-28.138-2.396c0-.097.08-.177.176-.177a.177.177 0 010 .353.177.177 0 01-.176-.176zM6.174 21.374l-.706-.303.706-.02c.388-.01.944.135 1.235.323l.529.342-.53-.02c-.29-.01-.846-.155-1.234-.322zm37.747 0c.12-.194.566-.342.991-.328l.773.025-.706.303c-.388.167-.834.314-.99.328-.157.013-.188-.134-.068-.328zM2.47 20.3c-1.067-.356-1.727-.658-1.466-.67.262-.011 1.333.228 2.382.533 1.048.305 1.906.622 1.906.706 0 .083-.198.135-.441.115-.243-.02-1.314-.328-2.381-.684zm43.568.367c.12-.194.566-.341.99-.328l.774.025-.706.303c-.388.167-.834.315-.99.328-.158.014-.188-.134-.068-.328zm2.293-.672c0-.167.35-.395.778-.507.428-.112.826-.157.884-.099.057.058-.293.286-.779.508-.486.221-.883.266-.883.098zm-8.731-.972c-.243-.098-.441-.451-.441-.785v-.606l-6.63-3.774c-3.645-2.076-6.78-3.77-6.967-3.765-.186.005-3.196 1.65-6.688 3.657l-6.35 3.648-.113.753-.113.752H9.836l.109-1.322.11-1.323 7.408-4.308c4.074-2.368 7.712-4.313 8.084-4.321.372-.008 3.626 1.677 7.232 3.745 3.606 2.068 6.993 4.063 7.526 4.434l.97.674v2.774l-.617-.028c-.34-.015-.816-.108-1.058-.205zm4.145-.296c.679-.261 1.473-.475 1.764-.475.29 0-.027.214-.706.475-.679.262-1.473.476-1.764.476-.29 0 .027-.214.706-.476zm-39.225-.77c.255-.102.56-.09.676.028.118.117-.09.2-.463.185-.41-.017-.494-.1-.213-.213zm20.351-.112c.12-.194.298-.353.395-.353.097 0 .078.16-.042.353-.12.194-.297.353-.394.353-.097 0-.079-.159.041-.353zm21.343.176a.177.177 0 01.353 0c0 .097-.08.177-.176.177a.177.177 0 01-.177-.177zm-39.003-1.4c-.376-.284-.516-.522-.31-.529.205-.006.68.222 1.058.507.376.285.516.523.31.53-.205.005-.68-.223-1.058-.507zm35.475.342a.177.177 0 01.353 0c0 .097-.08.177-.176.177a.177.177 0 01-.177-.177zm.856-.486c.105-.171.551-.401.991-.512l.8-.201-.686.511c-.376.282-.822.512-.99.512-.169 0-.22-.14-.115-.31zM3.881 15.024c-1.067-.564-1.84-1.033-1.718-1.042.122-.009 1.114.392 2.204.891 1.091.5 1.983.976 1.983 1.059 0 .082-.119.143-.264.134-.146-.01-1.138-.478-2.205-1.042zm41.657.572c.08-.073.822-.473 1.646-.889.825-.416 1.5-.676 1.5-.58 0 .098-.629.498-1.397.89-.769.392-1.51.712-1.647.712s-.183-.06-.102-.133zM7.761 14.142a.177.177 0 01.353 0c0 .097-.08.176-.176.176a.177.177 0 01-.177-.176zm35.278 0a.177.177 0 01.353 0c0 .097-.08.176-.176.176a.177.177 0 01-.177-.176zm-36.336-.529c-.318-.205-.361-.344-.109-.347a.82.82 0 01.638.347c.12.194.17.35.11.347-.06-.003-.348-.159-.639-.347zm3.684-.147c-.376-.276-.59-.594-.477-.708.114-.114.496.11.848.5s.567.708.477.708c-.09 0-.472-.225-.848-.5zm30.008-.208c.353-.39.717-.631.81-.538.094.094-.03.412-.275.708-.246.296-.61.538-.81.538-.201 0-.077-.319.275-.708zm3.608.311c.24-.24.524-.35.633-.24.109.108-.087.305-.435.438l-.633.24zM11.1 11.102c-.963-.993-1.434-1.64-1.046-1.44.389.202 1.334 1.015 2.1 1.806.768.792 1.238 1.44 1.046 1.44-.193 0-1.138-.813-2.1-1.806zm27 1.453c0-.194.168-.353.374-.353.205 0 .275.159.155.353-.12.194-.288.353-.373.353-.086 0-.156-.16-.156-.353zm3.888-.538c.245-.296.519-.465.608-.376.088.089.056.33-.071.538-.128.206-.402.376-.608.376-.234 0-.207-.203.07-.538zM7.055 10.74c-.872-.772-1.27-1.238-.881-1.034.388.203 1.176.762 1.75 1.24.575.48.971.945.882 1.035-.09.09-.878-.469-1.75-1.241zm7.233.756c-.12-.194-.06-.352.135-.352.194 0 .45.158.57.352.12.194.06.353-.134.353s-.451-.159-.571-.353zm22.225 0c.12-.194.297-.352.394-.352.097 0 .079.158-.041.352-.12.194-.298.353-.395.353-.097 0-.078-.159.042-.353zm3.351-.529c.456-.485.908-.882 1.005-.882.097 0-.196.397-.652.882s-.908.882-1.005.882c-.097 0 .197-.397.652-.882zM15.072 8.94c-.647-1.019-1.299-2.09-1.447-2.381-.149-.292.12-.074.596.483.477.557 1.213 1.628 1.636 2.381.423.753.684 1.369.58 1.369-.103 0-.717-.834-1.365-1.852zm20.052.97a72.964 72.964 0 011.495-2.381c.478-.728.933-1.323 1.01-1.323.077 0-.222.637-.665 1.416-.442.778-1.178 1.85-1.635 2.38l-.83.966zm2.371.463c.118-.328 1.126-1.713 2.241-3.078 1.116-1.365 2.09-2.42 2.165-2.345.075.075-.847 1.38-2.05 2.901-1.203 1.52-2.273 2.844-2.378 2.94-.105.098-.095-.09.022-.418zm6.603.066c0-.194.168-.353.373-.353.206 0 .276.16.156.353-.12.194-.288.353-.374.353-.085 0-.155-.159-.155-.353zM11.619 8.073a373.629 373.629 0 01-2.203-2.838c-.181-.243-.254-.441-.16-.441.092 0 1.157 1.204 2.365 2.675 1.207 1.472 2.123 2.749 2.033 2.838-.09.09-1.005-.916-2.035-2.234zm4.45-2.055c-1.077-2.283-1.95-4.246-1.94-4.363.01-.117.973 1.67 2.139 3.97 1.166 2.3 2.039 4.263 1.94 4.363-.1.099-1.062-1.687-2.139-3.97zm18.756-.328c1.106-2.223 2.068-3.985 2.136-3.917.069.069-.702 1.887-1.713 4.042-1.01 2.155-1.972 3.918-2.136 3.918-.165 0 .606-1.82 1.713-4.043zm6.45 3.866a.177.177 0 01.353 0c0 .097-.08.177-.176.177a.177.177 0 01-.177-.177zm4.14-.22c.239-.241.524-.35.632-.24.109.108-.087.305-.435.437l-.633.241zm-25.813-.7c-.094-.27-.49-1.355-.882-2.41-.391-1.056-.64-1.991-.552-2.08.088-.087.237.062.33.333.095.27.491 1.355.883 2.41.39 1.056.639 1.991.551 2.08-.088.087-.236-.062-.33-.332zm1.77-.973c-.151-.246-.18-.542-.064-.659a.302.302 0 01.425.001c.117.118.146.414.064.66l-.148.445-.276-.447zm10.378-.047c0-.259.106-.365.236-.235.129.13.129.34 0 .47-.13.13-.236.024-.236-.235zm-2.116-.706c0-.258.105-.364.235-.235.13.13.13.341 0 .47-.13.13-.235.024-.235-.235zm-6.322-.558c.016-.411.1-.495.213-.213.102.254.089.559-.028.676-.117.117-.2-.091-.186-.463zm4.233 0c.017-.411.1-.495.213-.213.102.254.09.559-.028.676-.117.117-.2-.091-.185-.463zM25.4 6.028a.177.177 0 01.353 0c0 .097-.08.177-.176.177a.177.177 0 01-.177-.177zm4.594-.558c.004-.275.308-1.611.674-2.97.366-1.358.68-2.28.698-2.05.017.23-.22 1.5-.525 2.82-.307 1.322-.624 2.47-.706 2.551-.082.082-.145-.076-.14-.351zM27.87 4.44c0-.258.106-.364.235-.234.13.13.13.34 0 .47-.13.13-.235.024-.235-.235zm-7.74-2.15c-.233-1.183-.362-2.212-.288-2.286.074-.074.381.894.682 2.151.3 1.257.43 2.286.288 2.286-.142 0-.45-.968-.682-2.151zm5.391-.495c.001-1.552.064-2.143.138-1.314.075.83.074 2.1-.002 2.823-.076.722-.137.043-.135-1.509zm-2.59 1.588c0-.26.106-.365.235-.236.13.13.13.341 0 .47-.13.13-.235.024-.235-.234zm4.939-.177c0-.097.08-.176.176-.176.097 0 .177.08.177.176a.177.177 0 01-.353 0z" fill="#414141"/></svg>