<?xml version="1.0" encoding="UTF-8" standalone="no"?>
<svg
   xmlns:dc="http://purl.org/dc/elements/1.1/"
   xmlns:cc="http://creativecommons.org/ns#"
   xmlns:rdf="http://www.w3.org/1999/02/22-rdf-syntax-ns#"
   xmlns:svg="http://www.w3.org/2000/svg"
   xmlns="http://www.w3.org/2000/svg"
   id="svg8"
   version="1.1"
   viewBox="0 0 51.153103 51.29792"
   height="51.29792mm"
   width="51.153103mm">
  <defs
     id="defs2" />
  <metadata
     id="metadata5">
    <rdf:RDF>
      <cc:Work
         rdf:about="">
        <dc:format>image/svg+xml</dc:format>
        <dc:type
           rdf:resource="http://purl.org/dc/dcmitype/StillImage" />
        <dc:title></dc:title>
      </cc:Work>
    </rdf:RDF>
  </metadata>
  <g
     transform="translate(-144.70491,-208.01597)"
     id="layer1">
    <path
       id="path3895"
       d="m 170.10523,259.0235 c 0,-0.2587 0.10583,-0.36453 0.23519,-0.23519 0.12935,0.12936 0.12935,0.34102 0,0.47038 -0.12936,0.12935 -0.23519,0.0235 -0.23519,-0.23519 z m -5.64444,-0.70555 c 0,-0.25871 0.10583,-0.36454 0.23518,-0.23519 0.12935,0.12935 0.12935,0.34102 0,0.47037 -0.12935,0.12935 -0.23518,0.0235 -0.23518,-0.23518 z m 10.60095,-3.44816 c -0.45247,-1.88706 -0.89665,-3.62945 -0.98706,-3.87198 -0.0904,-0.24254 -0.0151,-0.44098 0.16725,-0.44098 0.1824,0 0.68992,1.67906 1.12782,3.73123 0.43789,2.05218 0.73283,3.79457 0.65542,3.87199 -0.0774,0.0774 -0.51096,-1.40321 -0.96343,-3.29026 z m -16.23459,1.86066 c 0,-0.19403 0.15388,-0.59091 0.34197,-0.88195 0.18809,-0.29104 0.34197,-0.37042 0.34197,-0.17639 0,0.19403 -0.15388,0.59091 -0.34197,0.88195 -0.18809,0.29104 -0.34197,0.37041 -0.34197,0.17639 z m 20.68213,-3.936 c -1.11772,-2.24543 -1.94567,-4.16914 -1.8399,-4.27492 0.10578,-0.10577 1.07887,1.6728 2.16244,3.95238 1.08356,2.27959 1.91152,4.2033 1.83989,4.27492 -0.0716,0.0716 -1.04472,-1.70694 -2.16243,-3.95238 z m -14.69031,3.16307 c 0.003,-0.15698 0.15929,-0.52353 0.34737,-0.81457 l 0.34198,-0.52917 0.005,0.59654 c 0.003,0.3281 -0.15335,0.69465 -0.34738,0.81457 -0.19403,0.11992 -0.35034,0.0896 -0.34737,-0.0674 z m 5.28626,-0.10902 c 0,-0.2587 0.10583,-0.36453 0.23519,-0.23518 0.12935,0.12935 0.12935,0.34101 0,0.47037 -0.12936,0.12935 -0.23519,0.0235 -0.23519,-0.23519 z m -2.46944,-0.52917 c 0,-0.097 0.0794,-0.17638 0.17639,-0.17638 0.097,0 0.17638,0.0794 0.17638,0.17638 0,0.097 -0.0794,0.17639 -0.17638,0.17639 -0.097,0 -0.17639,-0.0794 -0.17639,-0.17639 z m 4.99174,-0.57326 c -0.0291,-0.50932 -0.13169,-1.46182 -0.22805,-2.11667 l -0.17519,-1.19062 0.37139,1.18406 c 0.20427,0.65123 0.30689,1.60373 0.22805,2.11666 l -0.14334,0.93261 z m -4.99174,-0.13229 c 0,-0.097 0.0794,-0.17639 0.17639,-0.17639 0.097,0 0.17638,0.0794 0.17638,0.17639 0,0.097 -0.0794,0.17639 -0.17638,0.17639 -0.097,0 -0.17639,-0.0794 -0.17639,-0.17639 z M 162.6969,254.261 c 0,-0.097 0.0794,-0.17639 0.17639,-0.17639 0.097,0 0.17639,0.0794 0.17639,0.17639 0,0.097 -0.0794,0.17639 -0.17639,0.17639 -0.097,0 -0.17639,-0.0794 -0.17639,-0.17639 z m 14.81666,0.0668 c 0,-0.12492 -0.38976,-1.26263 -0.86613,-2.52824 -0.47637,-1.26561 -0.74687,-2.30111 -0.60109,-2.30111 0.14577,0 0.61054,1.0627 1.03283,2.36154 0.42229,1.29885 0.69278,2.43656 0.60109,2.52824 -0.0917,0.0917 -0.1667,0.0645 -0.1667,-0.0604 z m -9.43603,-1.47796 c 0.004,-0.77611 0.0762,-1.05207 0.16054,-0.61325 0.0844,0.43883 0.0812,1.07383 -0.007,1.41111 -0.0883,0.33729 -0.15734,-0.0217 -0.15342,-0.79786 z m 2.0277,0.88194 c 0,-0.2587 0.10583,-0.36453 0.23519,-0.23518 0.12935,0.12935 0.12935,0.34102 0,0.47037 -0.12936,0.12935 -0.23519,0.0235 -0.23519,-0.23519 z m -4.58611,-0.52916 c 0,-0.29104 0.15377,-0.52917 0.34171,-0.52917 0.18793,0 0.25033,0.23813 0.13864,0.52917 -0.11168,0.29104 -0.26545,0.52916 -0.3417,0.52916 -0.0763,0 -0.13865,-0.23812 -0.13865,-0.52916 z m 20.09386,-0.59705 -0.797,-1.16684 1.00439,0.95945 c 0.55242,0.52769 0.91106,1.05277 0.797,1.16684 -0.11406,0.11406 -0.56604,-0.31769 -1.00439,-0.95945 z m -31.02997,0.0679 c 0,-0.19403 0.16812,-0.35278 0.37359,-0.35278 0.20548,0 0.27549,0.15875 0.15557,0.35278 -0.11991,0.19403 -0.28803,0.35278 -0.37359,0.35278 -0.0856,0 -0.15557,-0.15875 -0.15557,-0.35278 z m 8.98708,-0.42541 c 0.10493,-0.52502 0.3527,-1.38048 0.55061,-1.90101 0.1979,-0.52054 0.44032,-0.86594 0.5387,-0.76756 0.0984,0.0984 -0.1494,0.95383 -0.5506,1.90101 -0.40121,0.94717 -0.64363,1.29258 -0.53871,0.76756 z m -2.42513,-0.28014 c 0.12725,-0.48507 0.53956,-1.49265 0.91626,-2.23905 0.37669,-0.74641 0.76377,-1.27823 0.86018,-1.18182 0.0964,0.0964 -0.31591,1.10397 -0.91626,2.23904 -0.60035,1.13508 -0.98743,1.6669 -0.86018,1.18183 z m -1.7366,-1.7749 c 0.6971,-1.17022 1.34938,-2.04574 1.44953,-1.9456 0.10014,0.10015 -0.39924,1.0576 -1.10973,2.12768 -0.71049,1.07008 -1.36278,1.94559 -1.44953,1.94559 -0.0867,0 0.41263,-0.95745 1.10973,-2.12767 z m 22.33854,1.42212 c -0.20768,-0.38806 -0.29823,-0.70556 -0.20122,-0.70556 0.097,0 0.34632,0.3175 0.554,0.70556 0.20768,0.38805 0.29822,0.70555 0.20121,0.70555 -0.097,0 -0.34631,-0.3175 -0.55399,-0.70555 z m -15.875,-0.13475 c 0,-0.29104 0.15875,-0.62728 0.35278,-0.7472 0.19402,-0.11991 0.35277,0.0201 0.35277,0.31114 0,0.29104 -0.15875,0.62728 -0.35277,0.7472 -0.19403,0.11991 -0.35278,-0.0201 -0.35278,-0.31114 z m -10.23056,-0.15401 c 0,-0.20634 0.16931,-0.4798 0.37625,-0.60769 0.20693,-0.12789 0.4489,-0.15989 0.53769,-0.0711 0.0888,0.0888 -0.0805,0.36225 -0.37625,0.60768 -0.33527,0.27826 -0.53769,0.30502 -0.53769,0.0711 z m 28.25764,-0.87381 -0.46704,-0.77771 0.63578,0.60896 c 0.34969,0.33493 0.55986,0.6849 0.46705,0.77771 -0.0928,0.0928 -0.37891,-0.18122 -0.63579,-0.60896 z m -21.73125,-3.87891 -7.40833,-4.30713 -0.10949,-1.32292 -0.10949,-1.32292 h 1.23148 1.23148 l 0.11273,0.75264 0.11273,0.75263 6.35,3.64836 c 3.4925,2.0066 6.50225,3.65229 6.68832,3.65709 0.18608,0.005 3.32139,-1.68949 6.96736,-3.76509 l 6.62904,-3.77383 v -0.67704 -0.67705 l 0.79375,0.21272 c 0.43657,0.117 0.91282,0.21489 1.05834,0.21753 0.14552,0.003 0.26458,0.47026 0.26458,1.03913 v 1.03431 l -0.97014,0.67403 c -0.53357,0.37071 -3.92033,2.3659 -7.52613,4.43374 -3.60579,2.06785 -6.86017,3.75325 -7.23194,3.74533 -0.37178,-0.008 -4.00971,-1.9526 -8.08429,-4.32153 z m 18.34445,3.27759 c -0.11992,-0.19403 -0.0499,-0.35278 0.15556,-0.35278 0.20548,0 0.3736,0.15875 0.3736,0.35278 0,0.19403 -0.07,0.35278 -0.15557,0.35278 -0.0856,0 -0.25368,-0.15875 -0.37359,-0.35278 z m -29.10417,-1.73858 c 0.87312,-0.79849 1.905,-1.61483 2.29305,-1.81411 0.38806,-0.19929 0.14993,0.13327 -0.52916,0.739 -0.6791,0.60574 -1.71098,1.42209 -2.29306,1.81411 -0.63161,0.42538 -0.41824,0.12741 0.52917,-0.739 z m 3.70416,-0.0253 c 0.55767,-0.58208 1.1727,-1.05833 1.36673,-1.05833 0.19403,0 -0.1035,0.47625 -0.66117,1.05833 -0.55767,0.58208 -1.1727,1.05833 -1.36673,1.05833 -0.19402,0 0.1035,-0.47625 0.66117,-1.05833 z m 24.75325,0.82315 c -0.12936,-0.12935 -0.23036,-0.48654 -0.22446,-0.79375 l 0.0107,-0.55857 0.37438,0.64382 c 0.20592,0.3541 0.30692,0.71129 0.22446,0.79375 -0.0825,0.0825 -0.25576,0.0441 -0.38511,-0.0853 z m 8.92371,-0.8486 -1.2214,-1.08379 1.32292,0.94927 c 0.7276,0.5221 1.32291,1.0098 1.32291,1.08379 0,0.074 -0.0457,0.13451 -0.10151,0.13451 -0.0558,0 -0.65115,-0.4877 -1.32292,-1.08378 z m -30.32557,-0.13294 c 0,-0.13463 0.23813,-0.48291 0.52917,-0.77395 0.29104,-0.29104 0.52917,-0.37851 0.52917,-0.19439 0,0.18413 -0.23813,0.53241 -0.52917,0.77395 -0.29104,0.24155 -0.52917,0.32902 -0.52917,0.19439 z m 25.75278,-0.72355 c 0,-0.097 0.0794,-0.17639 0.17639,-0.17639 0.097,0 0.17639,0.0794 0.17639,0.17639 0,0.097 -0.0794,0.17639 -0.17639,0.17639 -0.097,0 -0.17639,-0.0794 -0.17639,-0.17639 z m 2.47652,-0.69703 c -0.27825,-0.33528 -0.30501,-0.5377 -0.0711,-0.5377 0.20633,0 0.47979,0.16932 0.60769,0.37625 0.12789,0.20694 0.15989,0.4489 0.0711,0.5377 -0.0888,0.0888 -0.36225,-0.0805 -0.60769,-0.37625 z m -29.63333,-0.36983 c 0.24543,-0.29573 0.51889,-0.46505 0.60768,-0.37625 0.0888,0.0888 0.0568,0.33076 -0.0711,0.53769 -0.12789,0.20694 -0.40135,0.37625 -0.60768,0.37625 -0.23393,0 -0.20717,-0.20242 0.0711,-0.53769 z m 26.45126,0.3613 c 0,-0.097 0.0794,-0.17639 0.17639,-0.17639 0.097,0 0.17638,0.0794 0.17638,0.17639 0,0.097 -0.0794,0.17639 -0.17638,0.17639 -0.097,0 -0.17639,-0.0794 -0.17639,-0.17639 z m -31.2753,-2.14801 c 0.73923,-0.50231 1.41943,-0.83792 1.51156,-0.74579 0.0921,0.0921 -0.37551,0.50312 -1.03921,0.9133 -0.6637,0.41019 -1.3439,0.7458 -1.51156,0.7458 -0.16766,0 0.29999,-0.41099 1.03921,-0.91331 z m 36.91974,0.73692 c 0,-0.097 0.0794,-0.17639 0.17639,-0.17639 0.097,0 0.17639,0.0794 0.17639,0.17639 0,0.097 -0.0794,0.17639 -0.17639,0.17639 -0.097,0 -0.17639,-0.0794 -0.17639,-0.17639 z m -4.58611,-0.35278 c 0,-0.097 0.0794,-0.17639 0.17639,-0.17639 0.097,0 0.17639,0.0794 0.17639,0.17639 0,0.097 -0.0794,0.17639 -0.17639,0.17639 -0.097,0 -0.17639,-0.0794 -0.17639,-0.17639 z m -34.80021,-1.80394 c 1.71787,-0.87551 3.20942,-1.50583 3.31454,-1.40071 0.10512,0.10512 -1.19716,0.82948 -2.89395,1.6097 -1.69679,0.78021 -3.18833,1.41053 -3.31454,1.40071 -0.1262,-0.01 1.17608,-0.73418 2.89395,-1.6097 z m 41.76757,0.72242 c -0.92163,-0.47975 -1.67569,-0.95129 -1.67569,-1.04785 0,-0.0966 0.83343,0.24308 1.85208,0.75476 1.01865,0.51168 1.91823,0.9906 1.99908,1.06427 0.0808,0.0737 0.001,0.12656 -0.17639,0.11753 -0.17786,-0.009 -1.07745,-0.40896 -1.99908,-0.88871 z m -4.6743,0.19958 c -0.11992,-0.19403 -0.0593,-0.35278 0.13475,-0.35278 0.19402,0 0.45089,0.15875 0.5708,0.35278 0.11992,0.19403 0.0593,0.35278 -0.13475,0.35278 -0.19403,0 -0.45089,-0.15875 -0.5708,-0.35278 z m -24.86544,-1.6757 c 0.003,-0.33955 0.15577,-0.85548 0.33955,-1.14652 0.18378,-0.29105 0.66642,-0.54761 1.07255,-0.57014 0.49359,-0.0274 0.67342,0.11882 0.5424,0.44097 -0.1078,0.26507 -0.28982,0.75976 -0.40447,1.0993 -0.11466,0.33955 0.24253,0.1 0.79375,-0.53234 0.55121,-0.63234 1.20065,-1.14828 1.44318,-1.14653 0.24254,0.002 0.44098,-0.15557 0.44098,-0.3496 0,-0.19403 0.15065,-0.35278 0.33477,-0.35278 0.18413,0 0.10475,0.55053 -0.17639,1.2234 -0.28114,0.67286 -0.51116,1.31723 -0.51116,1.43193 0,0.11469 0.15875,0.11042 0.35278,-0.009 0.19402,-0.11992 0.35277,-0.51679 0.35277,-0.88195 0,-0.36515 0.18191,-0.77634 0.40423,-0.91374 l 0.40423,-0.24983 -0.23456,0.93457 c -0.12901,0.51401 -0.15723,0.93456 -0.0627,0.93456 0.0945,0 0.40868,-0.43656 0.69815,-0.97014 0.28947,-0.53358 0.53267,-0.75226 0.54044,-0.48597 l 0.0141,0.48417 0.51372,-0.42635 c 0.28254,-0.23449 0.67248,-0.32822 0.86653,-0.20828 0.19406,0.11993 0.2634,0.45109 0.1541,0.73592 -0.1093,0.28483 -0.41986,0.51787 -0.69015,0.51787 -0.27028,0 -0.49142,0.15875 -0.49142,0.35278 0,0.19403 0.14938,0.35278 0.33196,0.35278 0.18258,0 0.43167,-0.16134 0.55354,-0.35854 0.12187,-0.19719 0.3939,-0.25204 0.60449,-0.12188 0.2106,0.13016 0.29309,0.0913 0.1833,-0.0863 -0.10979,-0.17764 -0.0152,-0.55935 0.21008,-0.84826 0.22533,-0.2889 0.80656,-0.5801 1.29163,-0.64712 0.48507,-0.067 0.93486,-0.26545 0.99954,-0.44097 0.0647,-0.17552 0.26311,-0.31913 0.44097,-0.31913 0.17786,0 0.28369,0.19466 0.23518,0.43258 -0.0485,0.23791 -0.28663,0.64613 -0.52916,0.90714 -0.24254,0.26101 -0.44097,0.72079 -0.44097,1.02173 v 0.54717 l 0.5155,-0.42783 c 0.28353,-0.23531 0.61173,-0.731 0.72933,-1.10153 0.1176,-0.37054 0.36746,-0.6737 0.55524,-0.6737 0.2033,0 0.18212,0.29764 -0.0524,0.73577 -0.21657,0.40467 -0.31395,0.81558 -0.2164,0.91313 0.0975,0.0976 0.43615,-0.27323 0.75245,-0.82396 l 0.57508,-1.00133 -0.21688,1.03175 -0.21689,1.03174 0.60911,-0.50258 0.60911,-0.50258 -0.40407,0.75848 -0.40407,0.75847 h -2.15252 -2.15252 l 0.21249,-0.84667 c 0.11688,-0.46566 0.12499,-0.84666 0.018,-0.84666 -0.10696,0 -0.3218,0.34417 -0.47741,0.76483 l -0.28294,0.76484 -3.05708,0.10612 -3.05709,0.10612 v -0.41235 -0.41234 l -0.42334,0.42333 c -0.23283,0.23283 -0.78845,0.42333 -1.23472,0.42333 -0.53962,0 -0.80958,-0.20677 -0.80599,-0.61736 z m 1.39449,-1.30215 c -0.006,-0.20545 -0.24429,-0.0654 -0.52916,0.31125 -0.28487,0.37663 -0.5129,0.85288 -0.50673,1.05833 0.006,0.20545 0.2443,0.0654 0.52917,-0.31124 0.28487,-0.37664 0.51289,-0.85289 0.50672,-1.05834 z m 2.28145,0.19159 c -0.10556,-0.10555 -0.33961,0.0416 -0.52012,0.32703 -0.1805,0.28542 -0.32557,0.6777 -0.32237,0.87173 0.003,0.19403 0.23725,0.0469 0.52012,-0.32703 0.28286,-0.37389 0.42793,-0.76617 0.32237,-0.87173 z m 6.48109,0.48387 c -0.10862,-0.10862 -0.30588,0.0872 -0.43836,0.43509 l -0.24087,0.63258 0.43836,-0.4351 c 0.24109,-0.2393 0.34948,-0.52396 0.24087,-0.63257 z m -3.81243,0.009 c 0,-0.097 -0.0794,-0.17639 -0.17639,-0.17639 -0.097,0 -0.17639,0.0794 -0.17639,0.17639 0,0.097 0.0794,0.17639 0.17639,0.17639 0.097,0 0.17639,-0.0794 0.17639,-0.17639 z m 1.05834,-0.35278 c 0,-0.097 -0.0794,-0.17638 -0.17639,-0.17638 -0.097,0 -0.17639,0.0794 -0.17639,0.17638 0,0.097 0.0794,0.17639 0.17639,0.17639 0.097,0 0.17639,-0.0794 0.17639,-0.17639 z m 3.175,-0.35277 c 0,-0.097 -0.0794,-0.17639 -0.17639,-0.17639 -0.097,0 -0.17639,0.0794 -0.17639,0.17639 0,0.097 0.0794,0.17639 0.17639,0.17639 0.097,0 0.17639,-0.0794 0.17639,-0.17639 z m 3.8554,1.85208 c -0.0138,-0.0485 -0.0977,-0.68351 -0.18627,-1.41111 -0.0944,-0.77529 -0.011,-1.32292 0.20154,-1.32292 0.19946,0 0.36266,0.23813 0.36266,0.52917 0,0.29104 0.127,0.52917 0.28222,0.52917 0.15522,0 0.45889,-0.17667 0.67482,-0.3926 0.21593,-0.21593 0.55824,-0.29022 0.7607,-0.16509 0.20246,0.12513 0.26869,0.48659 0.14718,0.80324 -0.14768,0.38486 -0.0841,0.49117 0.1918,0.32066 0.227,-0.14029 0.41272,-0.17767 0.41272,-0.0831 0,0.0946 -0.24946,0.42148 -0.55436,0.72638 -0.3049,0.3049 -0.9399,0.55436 -1.41111,0.55436 -0.47121,0 -0.86806,-0.0397 -0.8819,-0.0882 z m 1.96543,-0.61736 c 0.11992,-0.19403 -0.0295,-0.35278 -0.33196,-0.35278 -0.30249,0 -0.54999,0.15875 -0.54999,0.35278 0,0.19403 0.14939,0.35278 0.33196,0.35278 0.18258,0 0.43007,-0.15875 0.54999,-0.35278 z m -1.35232,-0.58796 c -0.12935,-0.12936 -0.23518,-0.0235 -0.23518,0.23518 0,0.2587 0.10583,0.36454 0.23518,0.23519 0.12936,-0.12936 0.12936,-0.34102 0,-0.47037 z m 1.17593,-0.29399 c 0,-0.097 -0.0794,-0.17638 -0.17639,-0.17638 -0.097,0 -0.17639,0.0794 -0.17639,0.17638 0,0.097 0.0794,0.17639 0.17639,0.17639 0.097,0 0.17639,-0.0794 0.17639,-0.17639 z m 9.88799,0.89573 c -0.28542,-0.18051 -0.43258,-0.41456 -0.32702,-0.52012 0.10556,-0.10556 0.49784,0.0395 0.87173,0.32238 0.37389,0.28286 0.52105,0.51692 0.32702,0.52011 -0.19403,0.003 -0.5863,-0.14187 -0.87173,-0.32237 z m -37.63198,-2.00017 c 0.94212,-0.28937 1.79044,-0.44864 1.88516,-0.35392 0.0947,0.0947 -0.43799,0.34165 -1.18379,0.54874 -0.74579,0.20709 -1.59412,0.36635 -1.88516,0.35392 -0.29104,-0.0124 0.24166,-0.25937 1.18379,-0.54874 z m 40.09121,0.23357 c 0,-0.18794 0.23813,-0.25033 0.52917,-0.13864 0.29104,0.11168 0.52917,0.26545 0.52917,0.3417 0,0.0763 -0.23813,0.13865 -0.52917,0.13865 -0.29104,0 -0.52917,-0.15377 -0.52917,-0.34171 z m -1.23472,-0.36385 -0.70556,-0.30319 0.59655,-0.0248 c 0.32809,-0.0136 0.69465,0.13395 0.81457,0.32798 0.11991,0.19403 0.16897,0.34162 0.10901,0.32798 -0.06,-0.0136 -0.42651,-0.16122 -0.81457,-0.32798 z m -44.59758,-0.83753 c 0.11287,-0.1208 1.74005,-0.68045 3.61598,-1.24366 1.87592,-0.56322 3.41076,-0.90589 3.41076,-0.76149 0,0.1444 -1.30968,0.61425 -2.91041,1.0441 -1.60073,0.42986 -3.22792,0.87136 -3.61597,0.98112 -0.38806,0.10975 -0.61322,0.10072 -0.50036,-0.0201 z m 49.18369,-0.36331 c -0.77611,-0.23431 -2.16517,-0.64852 -3.0868,-0.92048 -0.92164,-0.27195 -1.6757,-0.6153 -1.6757,-0.763 0,-0.14769 0.19844,-0.20662 0.44097,-0.13094 0.24254,0.0757 1.75066,0.55998 3.35139,1.07623 1.60073,0.51625 2.91042,1.00498 2.91042,1.08606 0,0.0811 -0.11906,0.13183 -0.26458,0.11278 -0.14552,-0.019 -0.89959,-0.22634 -1.6757,-0.46065 z m -35.10139,-2.8561 v -2.64584 h 0.52917 c 0.35278,0 0.52917,0.35278 0.52917,1.05834 v 1.05833 h 1.05833 1.05833 v -1.05833 c 0,-0.70556 0.17639,-1.05834 0.52917,-1.05834 h 0.52917 v 2.64584 2.64583 h -0.52917 -0.52917 v -1.23472 -1.23472 h -1.05833 -1.05833 v 1.23472 1.23472 h -0.52917 -0.52917 z m 5.29167,0 v -2.64584 h 0.52917 0.52916 v 2.64584 2.64583 h -0.52916 -0.52917 z m 2.11667,0 v -2.64584 h 0.6832 0.6832 l 0.11142,1.14653 0.11142,1.14653 0.62555,-1.14653 c 0.39222,-0.71888 0.89607,-1.14653 1.35082,-1.14653 h 0.72526 l -0.77184,1.24887 -0.77185,1.24888 0.92447,1.39696 0.92447,1.39696 h -0.85959 -0.85959 l -0.4075,-1.23472 c -0.22412,-0.6791 -0.55393,-1.23472 -0.73291,-1.23472 -0.17898,0 -0.32542,0.55562 -0.32542,1.23472 v 1.23472 h -0.70556 -0.70555 z m 4.93888,0 v -2.64584 h 0.70556 0.70556 v 2.64584 2.64583 h -0.70556 -0.70556 z m 2.11667,0 v -2.64584 h 0.66974 c 0.41093,0 1.01906,0.57937 1.57373,1.49931 l 0.904,1.49931 0.0138,-1.49931 0.0138,-1.49931 h 0.70556 0.70555 v 2.64584 2.64583 h -0.64623 c -0.40486,0 -0.9946,-0.62589 -1.57892,-1.67569 l -0.93268,-1.6757 -0.009,1.6757 -0.009,1.67569 h -0.70555 -0.70556 z m 5.99722,1.94028 c -0.43677,-0.43678 -0.70555,-1.17593 -0.70555,-1.94028 0,-0.76435 0.26878,-1.50351 0.70555,-1.94028 0.38806,-0.38806 1.0911,-0.70556 1.5623,-0.70556 0.47122,0 1.12748,0.27073 1.45836,0.60162 0.40447,0.40446 0.46664,0.6466 0.18973,0.7389 -0.22654,0.0755 -0.64265,-0.0542 -0.9247,-0.2883 -0.28205,-0.23408 -0.76172,-0.33008 -1.06595,-0.21334 l -0.55313,0.21226 0.10767,1.67929 0.10767,1.6793 h 0.70072 c 0.38688,0 0.75398,-0.27651 0.81962,-0.61736 0.0726,-0.37675 -0.0974,-0.61737 -0.43614,-0.61737 -0.30527,0 -0.55504,-0.15875 -0.55504,-0.35277 0,-0.19403 0.47625,-0.35278 1.05834,-0.35278 h 1.05833 v 1.04592 c 0,0.67302 -0.24328,1.17612 -0.68236,1.41111 -0.3753,0.20086 -1.0103,0.36519 -1.41111,0.36519 -0.40082,0 -1.04625,-0.3175 -1.43431,-0.70555 z m -32.27917,-4.58612 c -0.11991,-0.19402 -0.0499,-0.35277 0.15557,-0.35277 0.20548,0 0.3736,0.15875 0.3736,0.35277 0,0.19403 -0.07,0.35278 -0.15557,0.35278 -0.0856,0 -0.25368,-0.15875 -0.3736,-0.35278 z m 1.23473,0 c 0,-0.2587 0.10583,-0.36453 0.23518,-0.23518 0.12935,0.12935 0.12935,0.34102 0,0.47037 -0.12935,0.12935 -0.23518,0.0235 -0.23518,-0.23519 z m 2.29305,0 c -0.11991,-0.19402 -0.0499,-0.35277 0.15557,-0.35277 0.20548,0 0.3736,0.15875 0.3736,0.35277 0,0.19403 -0.07,0.35278 -0.15557,0.35278 -0.0856,0 -0.25368,-0.15875 -0.3736,-0.35278 z m 1.23472,0.17639 c 0,-0.097 0.0794,-0.17639 0.17639,-0.17639 0.097,0 0.17639,0.0794 0.17639,0.17639 0,0.097 -0.0794,0.17639 -0.17639,0.17639 -0.097,0 -0.17639,-0.0794 -0.17639,-0.17639 z m 29.62854,-2.98446 c -1.79801,-1.75403 -3.42496,-3.18915 -3.61546,-3.18915 -0.19049,0 -0.0896,0.35719 0.22415,0.79375 0.31378,0.43656 0.82799,1.27 1.14269,1.85209 l 0.57218,1.05833 -1.25861,-1.19883 c -0.69224,-0.65936 -1.22677,-1.32229 -1.18785,-1.47318 0.0389,-0.15089 -0.79525,-1.07985 -1.8537,-2.06436 -1.05845,-0.98451 -1.97126,-1.79002 -2.02847,-1.79002 -0.0572,0 -0.10402,0.17009 -0.10402,0.37798 0,0.20788 0.23813,0.6161 0.52917,0.90714 0.29104,0.29104 0.52673,0.71626 0.52376,0.94494 -0.003,0.22868 -0.15203,0.64759 -0.33124,0.93091 l -0.32584,0.51514 -0.67651,-0.61223 -0.67651,-0.61224 -0.45363,0.5466 c -0.2495,0.30062 -0.53829,0.46193 -0.64177,0.35845 -0.10348,-0.10348 -0.5827,0.1705 -1.06495,0.60883 -0.48224,0.43834 -0.74038,0.55886 -0.57363,0.26781 0.16675,-0.29104 0.833,-1.27036 1.48056,-2.17628 0.74814,-1.04662 1.03877,-1.73277 0.79718,-1.88208 -0.20911,-0.12924 -0.62888,-0.85648 -0.93281,-1.61609 -0.30394,-0.7596 -0.68055,-1.3811 -0.83692,-1.3811 -0.15637,0 -0.69998,0.7437 -1.208,1.65266 l -0.92369,1.65266 0.65672,-0.59433 c 0.3612,-0.32688 0.76631,-0.59433 0.90025,-0.59433 0.13394,0 0.1384,0.41887 0.01,0.93083 -0.1285,0.51195 -0.25058,1.2064 -0.27131,1.54322 -0.0207,0.33683 -0.89706,1.38474 -1.94741,2.3287 -1.10929,0.99693 -1.73691,1.39338 -1.49741,0.94587 0.22678,-0.42374 0.57022,-0.86802 0.7632,-0.98729 0.19299,-0.11927 0.35088,-0.3756 0.35088,-0.56963 0,-0.19403 -0.18328,-0.23951 -0.40728,-0.10106 -0.25437,0.1572 -0.31144,0.0966 -0.15202,-0.16133 0.1404,-0.22717 0.39209,-0.32848 0.5593,-0.22514 0.16722,0.10335 0.4189,0.002 0.5593,-0.22514 0.16716,-0.27048 0.10165,-0.3181 -0.18981,-0.13797 l -0.44508,0.27508 0.25476,-0.83793 0.25476,-0.83793 -1.32828,1.23472 c -0.73055,0.6791 -1.20213,0.9966 -1.04795,0.70556 0.15419,-0.29104 -0.4772,0.18521 -1.40307,1.05833 -1.09983,1.03718 -1.48417,1.27235 -1.10869,0.67838 l 0.5747,-0.90913 -1.00921,0.14812 -1.0092,0.14812 -0.61524,1.29017 c -0.33838,0.7096 -0.62022,1.36955 -0.62631,1.46657 -0.006,0.097 -0.34692,0.41335 -0.7574,0.70297 -0.41049,0.28963 -0.82571,0.53019 -0.92272,0.53457 -0.097,0.004 -0.39772,0.14813 -0.66823,0.31942 -0.2705,0.17128 0.40418,-0.77485 1.49931,-2.10252 1.09513,-1.32767 1.99114,-2.54181 1.99114,-2.69808 0,-0.15628 0.28528,-0.28414 0.63396,-0.28414 0.34868,0 1.23591,-0.61645 1.97162,-1.36989 0.81658,-0.83626 1.5696,-1.30923 1.93309,-1.21418 l 0.59542,0.15571 1.69222,-2.35231 c 0.93072,-1.29378 1.7769,-2.57302 1.88042,-2.84277 0.10351,-0.26975 0.32997,-0.49045 0.50323,-0.49045 0.17327,0 0.31659,0.19844 0.31849,0.44097 0.002,0.24254 0.39358,1.27899 0.87043,2.30324 l 0.86698,1.86226 0.68773,-0.42949 0.68773,-0.4295 1.57103,1.73525 1.57102,1.73526 0.6074,-0.5041 0.6074,-0.50409 2.81572,2.89232 c 1.54866,1.59078 2.95723,2.89232 3.13018,2.89232 0.17294,0 0.49163,0.3311 0.70821,0.73577 0.21658,0.40468 0.32163,0.80792 0.23345,0.8961 -0.0882,0.0882 -1.63142,-1.27479 -3.42942,-3.02883 z m 8.03461,2.55857 c 0.43882,-0.0844 1.07382,-0.0812 1.41111,0.007 0.33729,0.0883 -0.0218,0.15734 -0.79786,0.15342 -0.77612,-0.004 -1.05208,-0.0762 -0.61325,-0.16054 z m -28.13814,-2.39633 c 0,-0.097 0.0794,-0.17639 0.17639,-0.17639 0.097,0 0.17638,0.0794 0.17638,0.17639 0,0.097 -0.0794,0.17639 -0.17638,0.17639 -0.097,0 -0.17639,-0.0794 -0.17639,-0.17639 z m -10.40695,-1.23472 -0.70556,-0.30319 0.70556,-0.0194 c 0.38806,-0.0107 0.94368,0.13449 1.23472,0.32258 l 0.52917,0.34197 -0.52917,-0.0194 c -0.29104,-0.0107 -0.84666,-0.15583 -1.23472,-0.32258 z m 37.74722,0 c 0.11992,-0.19403 0.56585,-0.34162 0.99096,-0.32798 l 0.77293,0.0248 -0.70555,0.30319 c -0.38806,0.16675 -0.83399,0.31434 -0.99096,0.32798 -0.15697,0.0136 -0.18729,-0.13395 -0.0674,-0.32798 z m -41.45139,-1.07297 c -1.06715,-0.3563 -1.72658,-0.65751 -1.4654,-0.66937 0.26118,-0.0119 1.33274,0.22784 2.38125,0.53265 1.04851,0.30481 1.90638,0.62231 1.90638,0.70555 0,0.0832 -0.19844,0.13508 -0.44098,0.11517 -0.24253,-0.0199 -1.31409,-0.32771 -2.38125,-0.684 z m 43.56806,0.36741 c 0.11992,-0.19402 0.56585,-0.34162 0.99096,-0.32798 l 0.77293,0.0248 -0.70556,0.30318 c -0.38805,0.16676 -0.83398,0.31435 -0.99095,0.32799 -0.15698,0.0136 -0.18729,-0.13396 -0.0674,-0.32799 z m 2.29306,-0.67197 c 0,-0.16724 0.35025,-0.39566 0.77834,-0.50761 0.42809,-0.11195 0.82564,-0.15625 0.88344,-0.0985 0.0578,0.0578 -0.29246,0.28622 -0.77835,0.50761 -0.48589,0.22139 -0.88343,0.26569 -0.88343,0.0985 z m -8.73125,-0.97278 c -0.24254,-0.0979 -0.44098,-0.45086 -0.44098,-0.78443 v -0.6065 l -6.62904,-3.77383 c -3.64597,-2.0756 -6.78128,-3.76989 -6.96736,-3.76509 -0.18607,0.005 -3.19582,1.65049 -6.68832,3.65709 l -6.35,3.64835 -0.11273,0.75264 -0.11273,0.75263 h -1.23148 -1.23148 l 0.10949,-1.32291 0.10949,-1.32292 7.40833,-4.30713 c 4.07458,-2.36893 7.71251,-4.31361 8.08429,-4.32153 0.37177,-0.008 3.62615,1.67748 7.23194,3.74533 3.6058,2.06784 6.99256,4.06303 7.52613,4.43374 l 0.97014,0.67402 v 1.38709 1.38709 l -0.61736,-0.0279 c -0.33955,-0.0153 -0.8158,-0.10792 -1.05833,-0.20579 z m 4.14514,-0.29552 c 0.67909,-0.26152 1.47284,-0.47549 1.76388,-0.47549 0.29105,0 -0.0265,0.21397 -0.70555,0.47549 -0.6791,0.26151 -1.47285,0.47549 -1.76389,0.47549 -0.29104,0 0.0265,-0.21398 0.70556,-0.47549 z m -39.22449,-0.77016 c 0.25467,-0.10191 0.55894,-0.0894 0.67616,0.0279 0.11723,0.11723 -0.0911,0.20061 -0.46302,0.18529 -0.41097,-0.0169 -0.49456,-0.10052 -0.21314,-0.21314 z m 20.35087,-0.11179 c 0.11992,-0.19403 0.29741,-0.35278 0.39442,-0.35278 0.097,0 0.0783,0.15875 -0.0416,0.35278 -0.11991,0.19403 -0.2974,0.35278 -0.39442,0.35278 -0.097,0 -0.0783,-0.15875 0.0416,-0.35278 z m 21.34306,0.17639 c 0,-0.097 0.0794,-0.17639 0.17639,-0.17639 0.097,0 0.17639,0.0794 0.17639,0.17639 0,0.097 -0.0794,0.17639 -0.17639,0.17639 -0.097,0 -0.17639,-0.0794 -0.17639,-0.17639 z m -39.00271,-1.39989 c -0.37664,-0.28487 -0.5167,-0.523 -0.31125,-0.52917 0.20545,-0.006 0.6817,0.22186 1.05834,0.50673 0.37663,0.28487 0.51669,0.523 0.31124,0.52917 -0.20545,0.006 -0.6817,-0.22186 -1.05833,-0.50673 z m 35.47493,0.34156 c 0,-0.097 0.0794,-0.17639 0.17639,-0.17639 0.097,0 0.17639,0.0794 0.17639,0.17639 0,0.097 -0.0794,0.17639 -0.17639,0.17639 -0.097,0 -0.17639,-0.0794 -0.17639,-0.17639 z m 0.85563,-0.48659 c 0.10544,-0.1706 0.55137,-0.40083 0.99096,-0.51162 l 0.79925,-0.20142 -0.68479,0.51162 c -0.37663,0.28139 -0.82257,0.51162 -0.99096,0.51162 -0.16839,0 -0.2199,-0.13959 -0.11446,-0.3102 z m -39.66119,-1.45369 c -1.06715,-0.56378 -1.8404,-1.03254 -1.71832,-1.04169 0.12207,-0.009 1.11426,0.39187 2.20486,0.89116 1.0906,0.49929 1.98291,0.97554 1.98291,1.05833 0,0.0828 -0.11906,0.14304 -0.26458,0.13389 -0.14553,-0.009 -1.13771,-0.47791 -2.20487,-1.04169 z m 41.65718,0.57253 c 0.0808,-0.0732 0.82168,-0.47327 1.6463,-0.88911 0.82462,-0.41585 1.4993,-0.67672 1.4993,-0.5797 0,0.097 -0.62867,0.49711 -1.39705,0.88911 -0.76838,0.392 -1.50922,0.71272 -1.6463,0.71272 -0.13708,0 -0.18309,-0.0599 -0.10225,-0.13302 z m -37.77662,-1.45448 c 0,-0.097 0.0794,-0.17638 0.17639,-0.17638 0.097,0 0.17639,0.0794 0.17639,0.17638 0,0.097 -0.0794,0.17639 -0.17639,0.17639 -0.097,0 -0.17639,-0.0794 -0.17639,-0.17639 z m 35.27778,0 c 0,-0.097 0.0794,-0.17638 0.17639,-0.17638 0.097,0 0.17639,0.0794 0.17639,0.17638 0,0.097 -0.0794,0.17639 -0.17639,0.17639 -0.097,0 -0.17639,-0.0794 -0.17639,-0.17639 z m -36.33611,-0.52883 c -0.31796,-0.20548 -0.36147,-0.34413 -0.10902,-0.34738 0.23109,-0.003 0.51827,0.15335 0.63818,0.34738 0.11992,0.19403 0.16898,0.35035 0.10902,0.34737 -0.06,-0.003 -0.34714,-0.15929 -0.63818,-0.34737 z m 3.68395,-0.14755 c -0.37633,-0.27517 -0.59091,-0.59365 -0.47684,-0.70772 0.11407,-0.11406 0.49561,0.11108 0.84787,0.50033 0.35227,0.38924 0.56684,0.70772 0.47684,0.70772 -0.09,0 -0.47154,-0.22515 -0.84787,-0.50033 z m 30.00828,-0.20739 c 0.35227,-0.38925 0.71699,-0.63121 0.81051,-0.53769 0.0935,0.0935 -0.0308,0.41198 -0.27622,0.70771 -0.24543,0.29573 -0.61016,0.5377 -0.8105,0.5377 -0.20035,0 -0.076,-0.31848 0.27621,-0.70772 z m 3.60814,0.31116 c 0.2393,-0.24109 0.52396,-0.34948 0.63257,-0.24087 0.10862,0.10862 -0.0872,0.30588 -0.43509,0.43836 l -0.63257,0.24087 z m -32.90391,-2.46738 c -0.96285,-0.99308 -1.43313,-1.64065 -1.04507,-1.43904 0.38805,0.20161 1.33308,1.01413 2.10006,1.80561 0.76698,0.79147 1.23727,1.43903 1.04507,1.43903 -0.19219,0 -1.13722,-0.81252 -2.10006,-1.8056 z m 27.00076,1.45283 c 0,-0.19403 0.16812,-0.35278 0.3736,-0.35278 0.20548,0 0.27548,0.15875 0.15557,0.35278 -0.11992,0.19402 -0.28804,0.35277 -0.3736,0.35277 -0.0856,0 -0.15557,-0.15875 -0.15557,-0.35277 z m 3.88763,-0.5377 c 0.24544,-0.29573 0.5189,-0.46504 0.60769,-0.37625 0.0888,0.0888 0.0568,0.33076 -0.0711,0.5377 -0.1279,0.20693 -0.40136,0.37625 -0.60769,0.37625 -0.23392,0 -0.20716,-0.20242 0.0711,-0.5377 z m -34.93245,-1.27713 c -0.87292,-0.7722 -1.26963,-1.23752 -0.88157,-1.03406 0.38806,0.20346 1.1756,0.76192 1.7501,1.24102 0.5745,0.4791 0.97121,0.94442 0.88158,1.03406 -0.0896,0.0896 -0.87719,-0.46882 -1.75011,-1.24102 z m 7.23232,0.75649 c -0.11991,-0.19403 -0.0593,-0.35278 0.13475,-0.35278 0.19403,0 0.45089,0.15875 0.57081,0.35278 0.11991,0.19403 0.0593,0.35278 -0.13475,0.35278 -0.19403,0 -0.45089,-0.15875 -0.57081,-0.35278 z m 22.225,0 c 0.11992,-0.19403 0.2974,-0.35278 0.39442,-0.35278 0.097,0 0.0783,0.15875 -0.0416,0.35278 -0.11992,0.19403 -0.2974,0.35278 -0.39442,0.35278 -0.097,0 -0.0783,-0.15875 0.0416,-0.35278 z m 3.35139,-0.52916 c 0.4557,-0.48507 0.90792,-0.88195 1.00493,-0.88195 0.097,0 -0.19645,0.39688 -0.65215,0.88195 -0.4557,0.48506 -0.90792,0.88194 -1.00494,0.88194 -0.097,0 0.19646,-0.39688 0.65216,-0.88194 z m -24.79186,-2.02848 c -0.64758,-1.01864 -1.29895,-2.09021 -1.44747,-2.38125 -0.14852,-0.29104 0.11981,-0.0735 0.5963,0.48339 0.47649,0.5569 1.2125,1.62847 1.63559,2.38125 0.42309,0.75278 0.6846,1.3687 0.58113,1.3687 -0.10347,0 -0.71796,-0.83344 -1.36555,-1.85209 z m 20.05212,0.97014 c 0.34415,-0.58208 1.01685,-1.65364 1.49489,-2.38125 0.47804,-0.7276 0.93218,-1.32291 1.00921,-1.32291 0.077,0 -0.22189,0.63716 -0.66424,1.41592 -0.44236,0.77875 -1.17808,1.85032 -1.63494,2.38125 l -0.83064,0.96533 z m 2.371,0.46287 c 0.11722,-0.32751 1.12562,-1.71242 2.24089,-3.07759 1.11527,-1.36516 2.08932,-2.42057 2.16454,-2.34534 0.0752,0.0752 -0.84726,1.38076 -2.04998,2.90119 -1.20272,1.52044 -2.27267,2.8438 -2.37766,2.94082 -0.105,0.097 -0.095,-0.0916 0.0222,-0.41908 z m 6.60207,0.0663 c 0,-0.19403 0.16812,-0.35278 0.3736,-0.35278 0.20548,0 0.27549,0.15875 0.15557,0.35278 -0.11992,0.19403 -0.28804,0.35278 -0.3736,0.35278 -0.0856,0 -0.15557,-0.15875 -0.15557,-0.35278 z M 156.324,216.08864 c -1.03,-1.3184 -2.02128,-2.59552 -2.20283,-2.83805 -0.18156,-0.24254 -0.25397,-0.44098 -0.16091,-0.44098 0.0931,0 1.15741,1.20405 2.36523,2.67565 1.20782,1.47161 2.12295,2.74873 2.03364,2.83805 -0.0893,0.0893 -1.00513,-0.91628 -2.03513,-2.23467 z m 4.44996,-2.05471 c -1.07669,-2.28264 -1.94939,-4.24598 -1.93932,-4.36298 0.0101,-0.117 0.97225,1.66935 2.13821,3.96966 1.16596,2.30032 2.03865,4.26366 1.93933,4.36298 -0.0993,0.0993 -1.06153,-1.68702 -2.13822,-3.96966 z m 18.7555,-0.32748 c 1.10662,-2.22313 2.0681,-3.98598 2.13664,-3.91745 0.0685,0.0685 -0.70227,1.88746 -1.7129,4.04206 -1.01063,2.15459 -1.97211,3.91744 -2.13664,3.91744 -0.16452,0 0.60629,-1.81892 1.7129,-4.04205 z m 6.45077,3.86566 c 0,-0.097 0.0794,-0.17638 0.17639,-0.17638 0.097,0 0.17639,0.0794 0.17639,0.17638 0,0.097 -0.0794,0.17639 -0.17639,0.17639 -0.097,0 -0.17639,-0.0794 -0.17639,-0.17639 z m 4.13926,-0.22016 c 0.2393,-0.2411 0.52396,-0.34949 0.63258,-0.24087 0.10861,0.10861 -0.0872,0.30587 -0.4351,0.43835 l -0.63257,0.24087 z m -25.81268,-0.69948 c -0.0938,-0.27031 -0.49066,-1.35513 -0.88188,-2.41072 -0.39121,-1.05559 -0.63942,-1.99112 -0.55158,-2.07896 0.0879,-0.0879 0.23648,0.0614 0.3303,0.33175 0.0938,0.2703 0.49067,1.35513 0.88188,2.41071 0.39121,1.05559 0.63942,1.99113 0.55158,2.07897 -0.0878,0.0878 -0.23648,-0.0614 -0.3303,-0.33175 z m 1.77074,-0.97329 c -0.15197,-0.24588 -0.18103,-0.54233 -0.0646,-0.65878 0.11644,-0.11644 0.30763,-0.1158 0.42485,0.001 0.11723,0.11723 0.14629,0.41368 0.0646,0.65879 l -0.14855,0.44564 -0.2763,-0.44707 z m 10.37768,-0.0473 c 0,-0.25871 0.10583,-0.36454 0.23519,-0.23519 0.12935,0.12935 0.12935,0.34102 0,0.47037 -0.12936,0.12935 -0.23519,0.0235 -0.23519,-0.23518 z m -2.11667,-0.70556 c 0,-0.2587 0.10584,-0.36454 0.23519,-0.23518 0.12935,0.12935 0.12935,0.34101 0,0.47037 -0.12935,0.12935 -0.23519,0.0235 -0.23519,-0.23519 z m -6.32214,-0.55856 c 0.0169,-0.41097 0.10052,-0.49456 0.21313,-0.21314 0.10191,0.25466 0.0894,0.55893 -0.0279,0.67616 -0.11722,0.11722 -0.2006,-0.0911 -0.18529,-0.46302 z m 4.23333,0 c 0.0169,-0.41097 0.10052,-0.49456 0.21314,-0.21314 0.1019,0.25466 0.0894,0.55893 -0.0279,0.67616 -0.11722,0.11722 -0.2006,-0.0911 -0.18528,-0.46302 z m -2.14452,-0.32338 c 0,-0.097 0.0794,-0.17639 0.17639,-0.17639 0.097,0 0.17639,0.0794 0.17639,0.17639 0,0.097 -0.0794,0.17639 -0.17639,0.17639 -0.097,0 -0.17639,-0.0794 -0.17639,-0.17639 z m 4.59417,-0.55857 c 0.004,-0.27487 0.3076,-1.61102 0.67371,-2.96921 0.36611,-1.3582 0.67999,-2.28086 0.6975,-2.05036 0.0175,0.23049 -0.21878,1.49976 -0.52511,2.8206 -0.30632,1.32084 -0.62382,2.4684 -0.70555,2.55014 -0.0817,0.0817 -0.14498,-0.0763 -0.14055,-0.35117 z m -2.12472,-1.02893 c 0,-0.25871 0.10583,-0.36454 0.23518,-0.23519 0.12935,0.12935 0.12935,0.34102 0,0.47037 -0.12935,0.12935 -0.23518,0.0235 -0.23518,-0.23518 z m -7.73972,-2.15097 c -0.23274,-1.18303 -0.36243,-2.2117 -0.28819,-2.28594 0.0742,-0.0742 0.38111,0.89369 0.68194,2.15096 0.30082,1.25727 0.4305,2.28595 0.28819,2.28595 -0.14232,0 -0.44919,-0.96794 -0.68194,-2.15097 z m 5.39121,-0.49487 c 0.001,-1.55222 0.0633,-2.14334 0.13782,-1.31359 0.0745,0.82975 0.0735,2.09975 -0.002,2.82222 -0.0758,0.72248 -0.13677,0.0436 -0.13549,-1.50863 z m -2.59038,1.5875 c 0,-0.2587 0.10583,-0.36453 0.23518,-0.23518 0.12935,0.12935 0.12935,0.34102 0,0.47037 -0.12935,0.12935 -0.23518,0.0235 -0.23518,-0.23519 z m 4.93889,-0.17639 c 0,-0.097 0.0794,-0.17638 0.17638,-0.17638 0.097,0 0.17639,0.0794 0.17639,0.17638 0,0.097 -0.0794,0.17639 -0.17639,0.17639 -0.097,0 -0.17638,-0.0794 -0.17638,-0.17639 z"
       style="fill:#414141;stroke-width:0.35277778" />
  </g>
</svg>
